<?xml version="1.0"?>
<svg xmlns="http://www.w3.org/2000/svg" version="1.2" baseProfile="tiny" width="800" height="1144" viewBox="0 0 800 1144" stroke-linecap="round" stroke-linejoin="round">
<g id="sta_rosa_whole">
<path d="M 563.08 322.82 562.36 322.97 560.97 323.26 560.59 323.31 560.18 323.33 559.83 323.3 558.7 323.18 555.17 322.5 554.14 322.65 553.51 323.04 552.85 323.46 553.91 326.49 554.19 329.98 554.27 331.46 555.44 332.22 557.52 333.23 559.61 333.27 559.89 336.52 556.12 338.56 555.37 342.57 550.3 344.24 550.07 344.32 552.53 351.36 553.24 353.39 553.8 354.82 557.23 364.21 558.34 367.46 558.31 367.51 555 367.28 551.74 367.78 546.98 369.04 541.34 370.79 537.68 372.33 536.37 372.88 531.3 376.12 524.31 378.24 526.96 387.68 521.65 390.12 511.16 391.08 509.04 393.09 506.6 398.93 498.33 397.12 486.87 400.09 489.31 409 484.83 410.35 472.03 414.2 466.52 415.15 468.85 424.79 447.05 436.72 441.99 439.49 416.95 435.36 417.93 434.93 419.2 434.29 420.37 433.36 420.94 432.34 421.46 431.41 422.41 430.68 422.99 429.96 423.29 429.03 423.21 428.09 422.35 427.3 420.86 426.84 419.47 426.65 418.5 426.7 417.07 427.3 415.32 427.94 414.47 428.65 413.7 429.68 412.66 430.16 411.69 430.06 410.98 429.43 410.88 428.27 410.86 426.55 411.21 424.83 408.81 425.54 407.07 416.79 404.04 408.53 401.84 403.57 399.65 397.7 399.59 392.67 398.75 386.03 396.62 378.68 397.27 374.42 398.49 370.88 401.2 368.88 401.33 365.59 400.17 361.46 400.55 355.92 401.84 351.6 403.07 344.76 409.39 345.21 409.64 328.97 409.03 327.64 408.48 326.45 406.1 322.84 410.8 318.33 416.41 312.01 415.9 310.33 414.22 305.5 412.87 300.98 412.16 296.6 411.13 293.7 458.61 295.15 470.19 294.61 484.04 284.21 484.25 283.71 487.18 279.13 487.42 278.84 488.01 278.21 488.24 277.99 488.5 277.78 488.72 277.65 488.99 277.55 489.27 277.49 490.86 277.31 491.29 277.22 491.59 277.12 493.24 276.36 494.98 275.34 495.29 275.13 495.53 274.87 495.68 274.6 495.84 274.19 496.17 272.62 496.39 272 496.79 271.36 497.12 270.85 499.08 268.56 499.46 268.01 502.18 263.35 502.34 263.1 502.61 262.91 502.91 262.84 503.05 262.84 504.41 263.08 504.92 263.07 505.46 263.03 506.09 262.92 516.92 259.41 519.69 258.73 519.83 258.72 520.02 259.4 522.62 266.89 524.44 272.27 526.8 278.7 527.84 281.69 531.1 291.29 533.8 298.52 534.13 299.39 534.51 300.43 539.59 314.8 540.54 317.34 541.09 319.27 542.69 323.69 543.5 325.69 545.56 325.04 547.14 324.59 548.36 323.63 549.44 322.79 552.39 320.99 554.21 320.31 555.88 320.34 559.89 320.25 562.28 319.84 562.73 321.53 562.84 321.94 563.08 322.82 Z"/>
<path d="M 657.57 588.31 656.75 588.38 653.96 589.31 650.48 591.15 650.26 591.6 649.93 592.12 649.79 593.3 649.48 594.16 648.36 594.87 647.47 595.74 647.3 596.63 647.35 598.12 647.16 598.76 646.27 598.98 645.03 599.11 644.11 599.63 643.23 600.12 642.86 600.7 642.81 601.26 642.77 601.74 642.86 602.29 643.04 602.84 643.3 603.33 645.01 605.71 645.36 606.24 646.15 607.78 646.13 608.35 646.39 608.62 647.02 609.2 647.72 611.15 647.22 612.14 646.48 612.33 645.77 612.89 645.34 613.51 644.7 614 643.97 614.13 643.33 614.58 643.37 614.89 643.68 615.35 643.78 615.58 644.39 615.93 645.92 616.92 646.93 617.11 647.6 617.71 647.86 619.05 647.64 619.5 646.79 619.86 645.86 620.17 645.48 620.62 645.48 621.33 645.77 621.95 646.4 622.03 646.95 621.88 648.03 621.88 648.92 622.01 649.62 622.36 649.93 623.15 649.81 623.99 649.54 624.7 648.84 624.9 648.09 624.82 647.66 624.37 647.12 623.85 646.52 623.85 646.3 624.02 646.04 624.26 645.92 624.9 645.92 625.4 645.44 625.9 645.3 626.85 645.05 627.57 643.79 627.74 642.63 628.73 641.66 629.19 640.95 629.5 640.6 630.34 640.79 630.88 641.9 631.05 643.12 630.68 645.11 629.89 645.59 629.1 647.04 628.96 647.91 629.61 648.19 629.99 648.2 630.45 647.82 631.15 647.18 631.83 646.4 632.7 645.8 634.23 645.63 635.62 645.42 636.18 644.7 636.3 643.62 636.32 642.15 636.41 641.45 636.55 641.01 636.76 640.31 637.19 640.27 637.26 640.06 637.69 640.27 638.26 640.67 639.02 641.02 639.58 641.61 640.83 641.87 641.25 641.89 642.07 641.47 642.64 640.95 642.9 642.71 648.79 642.83 649.19 643.99 675.46 653.4 710.2 657.31 724.34 662.55 736.2 684.36 767.21 684.13 767.3 683.96 767.42 683.83 767.62 683.75 767.84 683.73 768.03 683.76 768.32 683.83 768.57 683.93 768.76 685.09 770.6 685.32 771.08 685.43 771.56 685.74 773.77 685.78 774.02 685.84 774.28 685.92 774.46 685.98 774.56 686.09 774.69 686.2 774.81 686.39 774.93 686.6 774.96 686.76 774.94 687.29 774.81 687.43 774.81 687.55 774.83 687.69 774.91 687.82 775.05 688.02 775.34 688.09 775.5 688.12 775.64 688.12 775.78 688.11 775.9 688.07 775.99 685.84 778.15 685.49 778.39 685.26 778.51 684.99 778.6 684.81 778.62 684.52 778.63 684.11 778.62 683.8 778.65 683.36 778.77 682.9 778.95 679.6 780.61 679.37 781.04 679.07 781.37 679.05 781.88 678.66 782.4 678.26 782.85 677.65 783.27 677.06 783.48 676.2 783.56 675.28 783.24 674.28 782.77 673.46 782.13 672.85 781.44 672.36 780.56 672.02 779.79 671.77 779.22 671.39 778.76 670.79 778.58 670.03 778.52 669.3 778.48 668.69 778.17 668.21 777.94 668.04 777.69 667.44 777.05 666.65 776.16 666.01 775.81 665.08 775.71 664.04 776.01 663.42 775.97 663 775.97 662.15 776.22 661.44 776.52 660.7 776.77 660.25 777.26 660.12 777.87 660.15 778.49 660.56 778.74 661.18 779.2 661.43 779.75 661.44 780.51 661.44 780.99 661.36 781.62 661.03 782.36 660.43 783.09 660.34 783.58 660.34 784.02 660.74 784.49 661.25 785.05 661.77 785.19 662.5 785.15 663.02 784.9 663.31 784.39 663.39 783.85 663.4 783.2 663.32 782.47 663.35 782.07 663.69 781.74 664.01 781.5 664.48 781.57 664.81 781.93 665.05 782.51 665.27 782.98 665.51 783.54 665.53 784.12 665.31 784.46 665.55 784.88 665.83 785.21 666.24 785.69 666.32 786.25 666.03 786.64 665.52 786.66 665.01 787.12 664.74 787.58 664.1 787.9 663.87 788.3 663.49 788.79 663 789.49 662.57 790.14 662.25 790.61 661.32 790.65 660.43 790.6 659.6 790.83 659.2 791.37 658.72 792.16 658.4 792.75 658.06 793.06 657.59 793.35 656.86 793.6 656.32 793.95 656.04 794.23 655.68 794.45 655 795.01 654.69 795.15 654.55 795.65 654.46 796.22 654.32 796.83 654.31 797.37 654.19 797.78 653.79 797.85 653.5 797.87 653.26 798.38 653.17 798.86 653.24 799.31 653.62 799.82 654.17 800.27 654.77 800.47 654.98 800.3 655.29 800.24 655.52 800.36 655.62 800.63 655.62 800.85 655.79 801.18 656.21 801.5 656.34 801.77 655.37 802.6 654.04 803.23 653.47 803.74 653.47 804.56 654.1 805.57 654.8 806.2 654.42 806.71 654.05 807.11 653.97 807.72 653.39 808.05 652.68 807.77 651.39 807 650.27 806.89 648.38 807.42 647.09 807.88 646.11 808.59 645.45 808.98 644.87 809.03 644.11 809.77 644.3 810.51 628.17 810.82 610.56 797.77 568.79 800.5 559.52 802.99 517.17 814.79 504.01 814.45 466.91 815.46 426.62 781.4 429.61 774.21 415.44 745.66 448.98 719.9 500.28 684.15 490.3 665.34 489.69 664.19 482.28 649.4 475.96 637.62 467.74 620.78 468.82 620.26 469.09 620.15 469.54 620.03 468.86 617.88 495.19 611.35 509.16 609.94 514.09 609.43 523.32 608.5 522.23 604.01 522.47 589.01 522.77 588.87 523 588.72 523.22 588.55 523.38 588.37 523.49 588.18 523.57 587.96 523.77 586.98 523.85 586.73 523.97 586.51 524.09 586.34 524.66 585.64 525.87 584.19 526.53 583.53 526.97 583.15 528.28 582.18 528.57 581.89 528.74 581.67 528.89 581.33 529.96 579.25 530.08 579.08 530.2 578.92 530.36 578.75 530.53 578.63 530.71 578.55 530.91 578.49 531.26 578.44 532.13 578.37 535.31 578.09 537.79 577.93 538.53 577.93 541.48 578.49 542.29 578.65 545.6 579.01 546.3 579.08 550.37 579.76 550.86 579.78 551.17 579.85 553 580.77 553.36 580.88 553.71 580.9 554.13 580.83 555.85 580.36 556.43 580.18 556.76 580.1 558.16 579.93 559.04 579.87 559.66 579.92 560.69 580.05 562.2 580.4 564.9 581.36 565.31 581.51 565.96 581.63 566.47 581.71 567.05 581.77 567.54 581.81 569.85 581.74 570.26 581.7 570.53 581.6 571.92 580.96 572.17 580.87 572.38 580.83 572.63 580.82 573.04 580.87 573.41 580.93 573.72 581.01 574.01 581.17 574.31 581.39 574.54 581.61 574.73 581.83 574.95 582.1 575.07 582.32 575.12 582.49 575.12 582.65 575.1 582.81 575 583.04 574.85 583.31 573.17 585.4 573.13 585.84 573.33 586.1 574.08 586.53 574.25 586.6 580.16 588.4 580.42 588.44 580.7 588.4 580.86 588.27 580.99 587.97 581.09 587.71 581.24 587.54 581.48 587.44 581.88 587.39 582.15 587.44 582.46 587.65 582.79 588.28 583 588.56 583.3 588.66 583.64 588.67 584.03 588.52 584.35 588.45 584.67 588.5 585 588.6 585.31 588.82 585.98 589.98 586.29 590.14 586.66 590.16 587 590.07 588.26 589.16 588.66 588.69 588.95 588.15 589.25 587.77 590.01 587.14 590.31 586.99 590.59 586.91 590.9 586.86 592.09 586.88 592.34 586.82 592.61 586.65 593.98 585.39 594.21 585.26 594.46 585.18 594.69 585.18 595.56 585.31 595.89 585.38 596.15 585.59 596.92 586.88 597.2 587.22 597.56 587.37 597.87 587.46 600.6 587.54 600.97 587.46 601.32 587.37 603.76 586.17 604.01 586.02 604.35 585.94 604.64 585.96 604.83 586.07 604.98 586.28 606.05 588.89 606.09 589.14 606.1 589.4 606.25 590.54 606.51 591.01 607.13 591.36 607.67 591.19 608.48 590.43 609.19 590.04 609.81 589.63 610.93 589.26 611.42 589.23 611.82 589.33 612.24 589.63 612.55 589.9 613.36 590.95 613.87 591.36 615.47 591.41 615.8 591.47 617.27 591.72 618.14 591.8 619.04 591.58 620.79 590.63 621.08 590.51 621.41 590.45 621.61 590.48 621.83 590.58 621.98 590.78 622.09 590.99 622.54 592.51 622.7 592.84 623.54 594.18 623.65 594.54 623.67 594.83 623.51 595.96 623.52 596.19 623.59 596.45 623.71 596.66 623.9 596.76 624.21 596.8 624.52 596.79 624.87 596.69 625.13 596.54 625.85 595.98 626.18 595.8 626.47 595.67 628.99 594.82 629.27 594.76 629.62 594.73 629.94 594.76 630.21 594.83 632.7 596.37 632.93 596.44 633.22 596.48 633.5 596.45 633.74 596.37 635.37 595.42 635.52 595.29 636.11 594.59 636.23 594.44 636.27 594.3 636.26 594.12 636.19 593.95 636.05 593.81 634.31 593.08 634.11 592.95 633.98 592.75 633.9 592.49 633.87 592.16 633.91 591.89 634 591.67 634.3 591.2 634.64 590.78 635.07 590.31 635.53 589.94 635.88 589.72 636.32 589.51 637.97 588.85 638.28 588.68 639.74 587.77 640.02 587.62 640.4 587.49 641.02 587.41 641.52 587.45 642.89 587.72 643.21 587.73 643.51 587.68 644.39 587.27 645.63 586.07 646.88 584.95 647.82 584.48 649.07 584.01 652.63 583.88 653.36 584.36 653.36 584.36 655.47 585.81 656.8 587.01 657.42 588.06 657.57 588.31 Z"/>
<path d="M 646.41 214.22 646.48 221.37 646.55 224.76 646.59 226.81 646.76 231.87 648.76 231.71 649.96 231.62 650.39 235.55 651.13 239.63 660.12 237.11 680.27 232.51 681.1 238.05 685.02 237.15 689.13 236.37 690.21 236.17 692.55 235.58 692.71 235.99 693.17 237.25 695.05 236.82 698.3 236.07 707.29 233.83 715.09 231.07 718.29 233.56 719.08 239.73 719.46 242.63 720.53 250.95 716.4 252.64 714.58 254.1 713.53 254.45 709.15 256.45 706.74 257.68 704.12 259.02 702.83 259.73 698.75 261.55 697.39 261.85 697.06 261.96 696.67 262.17 694.2 263.46 693.85 263.64 693.52 263.77 691.55 264.41 691.15 264.54 689.69 265.27 689.31 265.46 688.87 265.76 688.52 266.04 686.47 267.47 686.02 267.7 685.52 267.92 680.29 269.47 679.92 269.63 679.43 269.89 679.11 270.1 677.52 271.15 677.1 271.3 676.63 271.4 675.31 271.63 674.88 271.77 674.73 271.84 673.73 272.33 673.3 272.55 672.36 273.22 671.99 273.44 668.64 274.7 658.75 279.06 657.6 274.91 653.15 252.32 644.54 253.2 636.54 254.17 635.28 250.59 631.66 251.14 627.04 252.24 626.05 252.58 625.28 252.84 623.47 254.43 621.76 254.43 618.19 253.99 617.28 253.94 617.28 253.94 617.4 253.49 618 251.4 620.97 240.3 621.07 239.94 621.7 237.57 622.39 234.99 623.99 229.84 625.37 225.32 625.41 225.1 625.53 224.11 625.64 223.55 625.86 222.39 626.74 217.82 626.24 209.87 626.24 209.84 626.24 209.82 626.26 209.55 626.32 207.98 626.33 207.78 633.38 206.1 644.62 203.58 644.63 203.63 645.19 207 646.41 214.22 Z"/>
<path d="M 661.58 121.74 673.03 132.52 676.96 137.61 682.53 144.81 685.15 151 687.59 156.88 689.81 162.51 691.53 165.23 692.89 169.17 693.43 170.74 694.81 174.15 695.4 175.59 695.71 178.54 695.95 180.8 695.98 181.02 697.87 184.97 698.28 187.28 698.71 187.77 700.42 189.74 700.92 191.35 701.9 194.43 700.46 194.57 697.73 195.12 695.93 195.64 695.13 196.01 692.44 197.59 691.98 197.74 691.44 197.72 689.74 197.3 689.28 197.19 688.8 197.15 688.05 197.22 687.62 197.34 687.38 197.49 686.87 197.88 685.46 199.35 684.82 199.94 682.98 201.36 681.76 201.87 680.88 202.23 680.13 202.45 676.82 203.13 673.12 204.19 672.19 204.65 670.54 205.77 668.53 206.8 667 207.42 663.44 209.59 660.36 210.94 659.06 211.61 654.98 213.72 654.03 214.16 653.11 214.36 652.16 214.4 650.97 214.35 647.34 214.36 646.41 214.22 645.19 207 644.63 203.63 644.62 203.58 633.38 206.1 626.33 207.78 623.77 206.17 611.9 201.14 604.72 198 600.35 196.02 607.2 193.03 605.93 189.65 607.89 188.96 608.63 188.48 608.47 187.69 603.71 176.89 600.85 178.21 599.05 174.72 597.25 172.28 596.95 171.95 597.89 171.34 600.44 169.67 604.39 167.08 604.77 166.93 605.18 166.84 606.97 166.69 608.55 166.27 609.48 165.87 610.27 165.47 610.46 165.17 610.66 164.86 610.74 164.56 611 162.37 611.55 159.52 611.61 158.02 611.53 156.17 611.22 154.56 609.88 150.09 609.4 148.36 626.47 141.38 626.68 136.08 608.05 142.15 605.38 133.77 604.02 129.5 591.52 132.88 590.3 127.92 592.4 123.65 601.7 123.29 615.28 118.16 622.66 107.67 625.33 103.65 628.16 99.82 631.35 95.47 639.22 96.58 645.35 100.84 648.61 104.48 655.58 112.27 655.59 112.28 657.65 115.52 661.58 121.74 Z"/>
<path d="M 626.24 209.84 626.24 209.87 626.74 217.82 625.86 222.39 625.64 223.55 625.53 224.11 625.41 225.1 625.37 225.32 623.99 229.84 622.39 234.99 621.7 237.57 621.07 239.94 620.97 240.3 618 251.4 617.4 253.49 617.28 253.94 617.28 253.94 616.32 253.88 614.01 253.78 611.54 255.09 607.09 255.97 600.73 251.82 596.92 249.32 593.73 247.12 590 248.33 588.55 248.85 587.3 247.07 585.76 243.77 584.42 240.57 584.16 239.99 583.34 238.11 582.98 236.53 582.41 234.02 581.99 232.17 581.98 232.15 581.23 229.47 578.25 224.87 574.98 219.16 579.85 217.2 582.49 219.67 586.17 223.11 586.8 222.83 598.45 218.73 599.17 218.42 599.72 218.19 600.59 217.62 604.32 214.64 605.07 213.63 605.26 213.4 605.48 213.29 605.8 213.21 607.02 213.04 607.91 212.73 610.19 211.57 610.65 211.43 611.09 211.4 613.32 211.48 614.45 211.38 615.89 211.09 617.82 210.34 618.91 210.14 625.9 209.82 626.24 209.84 Z"/>
<path d="M 715.81 378.62 704.19 377.68 693.63 376.79 692.79 377.7 690.95 377.74 683.9 377.66 682.25 377.64 679.53 377.66 677.13 377.57 674.59 377.43 673.46 377.32 665.22 376.96 664.11 376.92 652.25 376.44 648.64 376.29 645.16 375 632.57 370.33 631.29 363.94 630.96 362.31 630.46 362.32 625.91 362.43 622.56 362.54 622.41 362.54 616.53 362.66 608.16 362.74 605.56 358.51 589.36 361.38 588.32 357.56 586.43 351.95 585.7 351.26 585.6 351.76 584.67 352.24 584.43 352.08 584.12 351.99 583.71 351.95 583.02 352.04 581.86 352.18 580.55 352.16 579.32 352.26 578.92 352.39 578.38 352.75 577.79 352.96 576.49 353.11 575.68 353.09 574.88 353.1 574 353.11 570.76 352.84 552.53 351.36 550.07 344.32 550.3 344.24 555.37 342.57 556.12 338.56 559.89 336.52 559.61 333.27 557.52 333.23 555.44 332.22 554.27 331.46 554.19 329.98 553.91 326.49 552.85 323.46 553.51 323.04 554.14 322.65 555.17 322.5 558.7 323.18 559.83 323.3 560.18 323.33 560.59 323.31 560.97 323.26 562.36 322.97 563.08 322.82 565.83 322.12 571.59 320.91 572.95 320.64 576.37 320.34 579.44 319.43 580.96 318.78 582.13 318.02 597.38 307.25 598.02 306.95 598.85 306.68 599.04 306.62 600.53 306.61 601.36 306.42 602.23 306.11 605 304.9 606.63 303.95 613.4 299.56 613.78 299.9 623.52 308.56 637.83 321.29 641.15 324.24 641.56 323.88 646.89 319.11 651.26 319.04 652.71 317.81 652.52 316.42 652.17 313.98 651.18 312.22 647.89 310 646.89 305.41 648.5 303.88 649.22 302.24 649.65 301.28 651.58 300.21 654.78 298.44 663.06 297.34 664.57 297.14 669.7 296.15 674 295.48 678.12 294.85 679.88 284.9 679.92 284.89 683.93 284.67 694.11 285.12 701.23 285.74 704.13 285.43 712.75 284.41 728.19 282.58 728.83 285.4 732.16 300.08 733.45 303.29 735.35 308.04 735.98 317.9 738.37 327.45 720.91 335.04 720.88 335.06 720.44 339.59 720.43 339.69 721.62 346.29 721.74 348.38 721.6 351.38 719.46 351.32 719.49 352.17 718.98 356.88 718.4 360.55 718.07 363.96 716.04 364.08 713.04 363.57 712.81 365.54 712.49 367.19 711.82 371.37 713.44 371.81 715.61 372.2 715.81 378.62 Z"/>
<path d="M 400.5 450.12 404.88 457.52 408.09 461.1 415.53 467.21 419.53 471.98 421.28 476.68 421.64 478.72 420.82 480.54 419.69 482.04 412.88 488.39 410.12 492.2 408.89 496.88 409.34 502.1 409.97 506.66 420.97 528.39 425.61 537.55 427.36 541.17 429.09 544.55 439.69 565.29 454.63 594.72 459.15 603.64 467.74 620.78 465.62 621.81 465.23 622.03 462.85 623.84 457.21 628.57 454.7 631.07 454.17 631.64 453.63 632.25 451.7 635.09 449.63 637.82 448.99 638.7 448.44 639.59 448.23 640.01 447.72 641.66 447.61 642.01 447.37 642.73 446.98 644.07 446.23 647.31 446 648.13 445.87 648.52 445.69 648.86 445.41 649.25 445.12 649.56 444.7 649.85 444.27 650.07 443.82 650.25 443.36 650.36 442.97 650.39 442.51 650.36 442.05 650.34 440.22 650.06 439.87 649.97 438.78 649.61 438.3 649.37 437.18 648.76 435.68 647.75 435.5 647.67 435.32 647.62 435.06 647.58 434.87 647.56 434.37 647.61 434.27 647.63 434.13 647.67 433.97 647.73 433.88 647.76 433.71 647.78 432.38 647.67 432.13 647.66 431.1 647.63 430.89 647.64 430.69 647.67 428.22 648.17 427.94 648.23 427.62 648.33 427.3 648.47 427.05 648.59 425.82 649.39 425.04 649.86 424.69 650.11 422.71 651.85 422.29 652.28 422.11 652.55 422.02 652.81 421.99 653.16 422.05 654.48 422.03 654.87 421.94 655.3 421.34 657.1 421.11 657.71 421.07 657.8 421.01 657.9 420.97 657.98 420.93 658.03 420.88 658.07 420.83 658.1 420 658.41 419.96 658.44 419.92 658.46 419.88 658.51 419.85 658.58 419.84 658.66 419.83 658.74 419.84 658.81 419.86 658.88 419.89 658.95 419.92 659.01 420.55 659.8 420.6 659.92 420.62 660.03 420.62 660.18 420.6 660.31 420.56 660.45 420.51 660.55 420.46 660.65 420.41 660.74 420.32 660.82 420.24 660.9 419.44 661.39 419.01 661.67 418.95 661.71 418.91 661.76 418.88 661.81 418.87 661.87 418.86 661.92 418.87 661.98 418.93 662.25 418.95 662.31 418.99 662.37 419.02 662.42 419.84 663.41 419.89 663.48 419.93 663.53 419.95 663.6 419.98 663.67 420.03 663.99 420.04 664.06 420.04 664.13 420.04 664.99 420.06 665.25 420.07 665.33 420.09 665.41 420.12 665.49 420.15 665.54 420.33 665.83 420.36 665.87 420.41 665.92 421.2 666.55 421.25 666.6 421.29 666.66 421.34 666.74 421.38 666.82 421.41 666.9 421.45 667.1 421.46 667.13 421.46 667.18 421.45 667.23 421.42 667.33 421.4 667.38 421.37 667.44 421.34 667.5 421.29 667.55 421.23 667.6 420.56 667.99 420.48 668.06 420.42 668.12 420.35 668.23 420.32 668.33 420.29 668.42 420.28 668.5 420.29 668.56 420.31 668.65 420.35 668.75 420.88 669.8 420.93 669.93 420.97 670.07 420.98 670.23 420.95 670.35 420.89 670.45 420.81 670.55 420.73 670.6 420.64 670.64 419.59 670.91 419.43 670.92 419.26 670.91 419.1 670.89 418.62 670.69 418.46 670.65 418.27 670.61 418.08 670.59 417.97 670.59 417.85 670.61 417.73 670.67 417.62 670.75 417.52 670.87 417.46 671 417.23 671.96 417.16 672.11 417.07 672.27 416.85 672.54 415.94 673.45 415.66 673.72 415.55 673.89 415.48 674.06 415.44 674.27 415.34 675.44 415.32 675.65 415.28 675.86 415.21 676.09 415.12 676.26 414.98 676.41 414.76 676.53 414.53 676.58 414.24 676.6 414 676.59 413.32 676.47 413.11 676.42 412.91 676.32 412.75 676.19 412.57 676.01 411.11 674.07 410.92 673.89 410.66 673.7 410.43 673.55 410.12 673.38 409.48 673.1 409.19 673 408.94 672.94 407.81 672.85 407.02 672.85 406.83 672.83 406.65 672.79 406.4 672.67 404.71 671.74 404.48 671.65 404.26 671.6 404.07 671.59 403.61 671.58 403.41 671.62 403 671.76 402.14 672.27 401.94 672.33 401.73 672.36 401.22 672.42 398.93 672.44 398.1 672.49 397.16 672.6 396.46 672.79 395.53 673.14 394.14 673.66 392.89 674.44 392.66 674.61 392.47 674.78 392.33 674.97 391.48 676.2 391.25 676.43 390.93 676.76 390.4 677.2 390.24 677.4 390.12 677.61 390.02 677.91 389.99 678.13 390.01 678.36 390.07 678.55 390.19 678.72 390.31 678.83 391.09 679.4 391.15 679.47 391.21 679.58 391.24 679.68 391.24 679.77 391.2 679.89 391.14 680 391.04 680.1 390.39 680.58 390.31 680.66 390.25 680.79 389.87 681.66 389.83 681.73 389.76 681.82 389.58 681.98 388.84 682.45 388.67 682.6 388.54 682.79 388.02 683.4 387.89 683.52 387.78 683.6 387.68 683.65 387.57 683.68 387.47 683.69 387.37 683.7 386.68 683.61 386.53 683.61 386.37 683.63 386.23 683.66 386.11 683.72 386.01 683.79 385.91 683.88 385.85 683.99 385.8 684.11 385.77 684.22 385.18 687.8 385.16 687.9 385.13 688 385.09 688.09 384.87 688.48 384.8 688.58 384.65 688.72 384.35 688.96 384.26 689.03 384.13 689.09 383.91 689.17 383.63 689.22 383.3 689.25 381.88 689.22 381.73 689.23 381.48 689.26 381.32 689.3 380.81 689.46 380.46 689.6 380.31 689.69 379.98 689.95 379.73 690.21 379.5 690.49 379.39 690.72 379.3 690.98 379.26 691.24 379.24 691.91 379.22 692.07 379.21 692.16 379.18 692.23 379.14 692.29 379.11 692.32 379.05 692.37 379 692.4 378.94 692.43 378.85 692.44 378.64 692.46 376.97 692.44 376.8 692.46 376.62 692.48 376.4 692.54 374.01 693.22 373.88 693.26 373.79 693.32 373.71 693.37 373.61 693.47 373.28 693.87 373.09 694.09 372.96 694.31 372.55 695.18 372.46 695.32 372.35 695.44 372.23 695.54 370.78 696.11 370.53 696.25 370.31 696.43 370.12 696.67 369.91 697 369.36 698.07 369.23 698.46 369.16 698.84 369.14 699.21 369.16 699.55 369.24 699.9 369.38 700.25 369.73 700.99 369.81 701.22 369.85 701.39 369.85 701.57 369.82 701.69 369.76 701.8 369.68 701.9 369.48 702.07 369.29 702.18 362.27 705.03 360.15 705.71 356.4 706.33 355.83 706.38 355.39 706.4 354.98 706.36 354.59 706.27 354.19 706.12 353.82 705.91 353.55 705.7 350.88 703.22 350.54 702.94 350.08 702.69 349.63 702.55 349.05 702.42 348.63 702.4 348.16 702.44 347.36 702.6 346.04 702.96 344.78 703.44 343.41 703.97 342.81 704.29 342.34 704.59 341.94 704.89 341.53 705.26 340.84 706.02 340.08 707.04 340 707.16 339.95 707.28 339.91 707.45 339.9 707.64 339.91 707.81 340.06 708.61 340.08 708.79 340.08 709.07 340.04 709.33 339.97 709.51 339.87 709.69 339.7 709.92 337.73 706.78 337.73 705.74 338.71 702.84 339.36 700.95 339.17 698.83 338.06 694.36 335.78 685.65 335.48 683.01 334.85 681.92 334.63 681.91 317.59 684.13 311.5 683.53 292.34 681.65 284.9 680.93 279.93 684.34 276.87 680.62 272.67 677.59 267.48 673.26 263.15 671.18 260.73 659.58 261.42 655.68 272.01 638.55 267.19 613.01 266.26 608.08 264.07 595.03 256.79 595.61 252.04 581.35 250.4 567.51 251.2 566.63 254.81 565.11 256.46 563.95 257.69 562.94 259.47 561.27 261.38 560.54 263.68 560.34 265.77 560.1 266.92 560 268.63 559.33 270.93 558.26 273.13 556.89 274.88 555.26 276.69 554.01 278.73 552.75 285.6 550.13 290.58 547.23 292.13 546.26 294.08 545.11 295.68 544.22 296.56 544.24 297.29 544.55 298.22 546.58 298.9 547.59 300.39 548.31 301.72 548.25 304.52 547.81 306.4 546.68 310.35 543.64 312.16 542.11 313.39 541.36 314.56 539.63 315.18 538.34 315.45 536.21 315.69 534.13 316.67 532.64 317.88 531.67 319.54 530.4 321.91 528.99 323.12 528.97 323.87 529.11 325.72 529.7 327.44 530.75 328.5 531.29 329.81 530.97 331.16 530.08 332.35 528.87 334.05 526.88 335.52 525.17 336.99 524.3 338.74 523.39 341.74 521.94 343.66 520.35 345.47 518.24 346.32 516.68 346.16 515.52 345.11 513.58 343.15 511.27 342.69 510.79 341.06 509.09 341.02 508.43 341.38 507.78 342.75 507.36 343.85 507.22 345.03 507.06 347.08 506.99 349.5 506.97 350.93 506.19 352.54 505.48 354.4 504.56 355.77 503.05 356.35 501.25 357.44 499.96 359.27 498.71 360.89 497.97 361.91 496.64 361.85 495.49 361.57 494.54 361.15 493.36 360.69 491.36 360.64 489.85 360.5 488.36 360.24 486.71 360.62 485.1 361.93 484.01 363.32 482.9 364.23 481.59 365 480.04 364.82 478.59 364.25 477 363.3 474.82 363.12 473.98 363.61 472.91 364.84 472.1 366.51 471.24 367.78 470.27 368.73 469.14 369.87 467.81 371.18 467.05 372.88 466.6 374.99 465.8 375.76 465.05 375.86 463.74 375.8 462.8 375.35 461.69 374.35 461.51 373.98 461.89 373.28 462.51 372.17 463.36 371.16 463.72 369.81 463.68 368.04 463 367.23 461.57 366.55 460.34 366.15 458.93 366.07 457.52 366.15 455.34 366.17 454.15 366.21 452.52 366.97 451.05 368.3 450.49 369.89 450.04 370.62 449.87 371.59 449.64 373.8 449.24 374.57 448.49 376.3 446.56 378.54 444.08 379.55 443.47 380.17 443.09 381.42 442.19 382.83 441.28 384.24 441.1 385.43 441.2 386.04 441.84 386.2 442.85 386.26 444.75 386.28 446.64 386.02 448.51 385.87 450.12 385.99 451.63 386.72 452.54 387.59 453.05 388.51 453.03 389.24 452.2 390.45 451.41 392.36 450.43 393.63 449.82 395.35 449.5 397.16 449.68 398.69 450.04 400.5 450.12 Z"/>
<path d="M 377.25 1005.39 378.2 1006.28 378.43 1007.85 378.48 1009.97 378.26 1011.82 377.7 1013.89 377.14 1016.51 376.64 1019.31 376.64 1020.76 375.69 1022.61 374.24 1023.84 371.89 1024.29 370.21 1023.17 368.7 1022.5 366.86 1022.39 365.52 1021.32 364.34 1020.2 362.11 1019.42 361.32 1018.47 359.14 1018.14 355.85 1017.74 354.34 1017.52 351.71 1017.58 346.68 1018.36 345.62 1020.04 345.5 1021.71 344.39 1021.99 343.94 1023.78 343.1 1024.73 342.15 1025.96 342.09 1028.48 341.65 1031.78 340.92 1035.36 340.03 1038.15 339.8 1039.61 338.35 1039.83 337.01 1039.22 336.67 1037.59 335.61 1036.42 334.6 1035.3 332.93 1035.08 330.64 1034.85 328.29 1035.02 327.06 1035.47 325.38 1035.92 322.81 1036.03 320.96 1035.47 319.96 1035.47 316.94 1035.25 313.59 1034.24 310.96 1033.68 307.21 1033.57 303.47 1033.79 300.62 1034.41 298.49 1034.35 296.54 1034.02 293.74 1033.79 291 1033.9 290.28 1035.53 290.28 1037.31 288.82 1040.11 287.65 1042.29 284.46 1045.2 282.67 1047.71 280.89 1048.5 275.97 1048.66 271.55 1048.83 267.41 1048.89 263.84 1048.66 261.49 1049.67 258.41 1052.08 256.85 1052.91 256.33 1054.27 256.14 1055.77 254.09 1056.51 251.02 1056.51 248.22 1056.51 245.71 1056.98 244.31 1057.63 243.19 1058.84 243.1 1061.26 243.66 1063.5 243.47 1065.55 242.07 1066.86 239.46 1067.88 237.51 1067.6 236.39 1066.39 235.18 1065.55 233.87 1064.99 231.64 1065.55 230.89 1067.51 228.75 1068.63 226.7 1069.47 224.28 1070.12 222.88 1072.26 222.6 1074.41 222.6 1076.36 221.95 1077.2 219.9 1076.27 217.94 1074.78 215.61 1072.82 212.26 1071.8 208.72 1072.17 205.36 1073.94 203.5 1075.71 203.69 1077.85 204.43 1078.88 205.18 1081.77 206.01 1084.19 206.95 1086.8 206.95 1089.22 206.01 1091.55 204.71 1093.7 200.61 1097.05 195.11 1099.94 192.69 1101.15 190.45 1103.39 187.57 1103.3 184.49 1101.9 181.79 1101.81 181.14 1103.86 181.14 1107.12 181.32 1110.29 180.3 1111.03 179.09 1111.41 177.97 1112.15 176.29 1111.78 174.06 1110.57 172.57 1110.57 171.82 1111.59 170.33 1111.59 168.75 1111.41 167.44 1111.96 166.51 1114.11 164.93 1117.09 162.5 1118.77 161.48 1120.35 158.68 1122.12 155.61 1124.83 153.47 1126.5 150.76 1125.94 149.83 1123.89 150.11 1120.73 149.27 1117.93 148.25 1116.16 147.78 1114.2 147.78 1112.43 145.55 1111.78 142.28 1111.96 139.3 1111.96 137.16 1111.87 133.34 1111.5 131.2 1111.41 129.24 1109.91 126.54 1109.82 123.74 1109.26 121.88 1110.38 120.67 1111.59 120.02 1113.64 118.81 1115.6 118.34 1117.84 119.36 1118.95 121.51 1120.17 121.51 1121.94 121.04 1123.33 118.9 1123.43 115.92 1124.36 112.75 1125.2 110.14 1126.13 107.53 1126.41 104.64 1125.85 103.62 1127.16 100.92 1128.27 100.73 1130.88 100.54 1133.68 98.96 1136.57 96.91 1138.53 94.95 1142.35 91.79 1143 85.82 1142.91 80.51 1142.07 75.48 1142.63 71.57 1142.91 68.86 1142.63 66.07 1141.6 62.81 1141.51 62.2 1141.54 41.54 1092.44 31.01 1067.39 9.06 1035.46 8.1 1035.12 1 1032.58 1.09 1030.26 1.86 1028.37 2.72 1026.31 3.41 1024.94 4.18 1023.65 4.87 1021.93 6.07 1020.3 8.13 1017.55 9.33 1016.69 11.82 1015.74 13.46 1015.05 14.66 1014.02 15.52 1012.13 16.38 1009.64 17.15 1007.92 18.27 1006.63 19.3 1005.17 19.47 1003.28 19.47 1001.73 19.81 999.16 21.02 996.92 22.22 995.03 23.59 994 25.57 992.45 27.97 990.82 30.29 989.7 30.98 987.56 30.98 985.84 32.01 983.86 33.99 982.23 36.56 980.42 38.11 979.56 39.74 978.71 41.8 977.85 43.35 977.16 44.98 975.7 45.24 973.72 45.93 972.17 47.47 970.46 48.76 968.65 49.16 968.23 49.88 966.59 50.65 965.21 50.82 963.84 51.07 962.89 51.43 961.52 52.11 959.11 52.11 957.22 51.34 955.16 48.85 952.15 48.51 950.78 48.59 948.97 49.02 946.74 50.22 943.65 50.65 942.27 51.6 940.12 52.54 938.4 53.49 937.03 55.21 935.31 56.06 933.76 56.49 932.22 56.92 930.07 56.92 927.84 56.92 925.77 56.32 923.11 56.24 920.53 57.53 918.3 58.47 918.21 61.97 915.22 62.29 914.84 62.83 913.99 63.16 913.44 63.41 912.6 63.69 911.42 63.97 910.89 64.41 910.3 65.3 909.36 65.82 908.93 66.35 908.63 67.67 908.03 68.13 907.72 68.83 907.09 69.52 906.4 72.88 902.58 73.6 901.33 73.81 900.79 73.91 900.21 73.94 899.5 74 899.1 74.1 898.7 75.88 894.69 76.05 894.01 76.14 893.39 76.26 892.11 76.39 891.47 76.73 890.29 76.82 889.77 76.84 888.79 76.9 888.28 77.03 887.64 77.8 885.82 78.2 885.07 78.73 884.37 79.51 883.12 79.84 882.02 80.07 881.15 81.2 879.01 98.94 894.87 108.61 899.44 117.38 902.33 140.25 906.68 151.41 946.16 157.03 960.02 186.77 956.91 252.94 925.97 275.2 947.64 276.33 949.62 301.18 969.51 310.69 977.32 331 983.99 341.93 984.56 348.75 986.05 366.02 992.27 377.25 1005.39 Z"/>
<path d="M 676.64 112.75 667.66 119.14 667.52 119.24 667.35 119.36 661.58 121.74 657.65 115.52 655.59 112.28 655.58 112.27 648.61 104.48 645.35 100.84 639.22 96.58 631.35 95.47 628.16 99.82 625.33 103.65 622.66 107.67 606.33 112.98 586.82 119.32 585.28 119.83 582.53 106.88 583 94.26 581.87 87.6 579.96 82.41 577.81 78.02 571.37 75.58 556.31 69.89 552.74 69.89 538.14 73.67 543.48 103.37 518.38 109.28 518.24 109.31 515.57 95.94 509.19 97.28 501.61 92.97 501.61 82.72 472.89 83.15 472.37 79.02 472.31 77.61 472.5 75.77 472.97 74.36 474.47 72.29 475.06 71.79 476.88 71.23 477.6 69.44 477.72 68.1 478.97 66.22 481.39 63.87 482.75 62.18 483.69 59.51 484.39 58.19 484.11 54.39 484.68 51.76 483.69 49.56 484.39 48.01 485.57 45.75 485.1 42.75 485.05 40.5 483.22 37.96 482.33 37.54 480.36 35.28 481.58 30.87 481.39 27.26 483.83 24.49 484.89 25.18 485.72 25.29 486.13 25.27 486.51 25.22 486.85 25.11 487.43 24.89 487.75 24.74 488.09 24.49 488.41 24.2 488.69 23.91 489 23.45 489.18 23.18 489.39 22.8 490.71 20.08 490.92 19.72 491.48 19.04 492.01 18.46 492.37 18.15 492.81 17.88 493.23 17.68 495.43 17.03 495.84 16.79 496.07 16.55 496.25 16.26 496.39 15.93 497.92 12.11 498.24 11.43 498.6 10.9 499.85 9.19 500.02 9.01 500.26 8.83 500.51 8.68 500.86 8.59 501.22 8.59 502.39 8.88 502.71 8.89 504.55 8.78 505.1 8.66 505.72 8.45 506.33 8.07 507.36 6.96 507.59 6.52 507.8 5.93 507.89 5.27 508.26 2.13 507.56 1.37 507.67 1 510.86 2.95 514.68 6.16 516.59 7.81 522.03 11.92 526.88 13.37 534.2 14.69 542.92 14.53 545.67 14.14 547.55 12.55 549.34 10.78 551.32 9.84 553.88 9.82 557.21 10.53 559.78 12.09 561.79 13.55 563.98 14.55 565.49 14.81 567.1 13.6 569.56 13.39 570.8 14.31 571.95 15.78 573.49 18.17 575.68 19.54 577.94 20.62 577.93 20.44 582.79 23.19 586.75 25.52 597.24 28.92 598.15 29.96 598.98 32.93 599.71 34.66 601.6 35.61 603.3 35.42 605.71 35.4 607.14 34.87 608.38 33.98 609.91 33.89 610.9 34.66 611.63 36.4 612.63 38.23 616.78 42.12 620.75 46.19 622.66 49.93 624.38 53.06 628.08 56.78 633.38 58.4 635.09 59.17 636.89 60.9 639.05 62.46 642.2 64.18 645.34 65.72 647.94 66.23 648.75 67.01 648.76 68.23 648.6 69.89 649.15 71.37 650.32 72.4 651.93 72.48 652.74 72.91 653.74 74.12 653.57 75.35 653.22 76.66 653.5 78.31 654.59 79.96 656.21 81.43 657.48 82.82 657.76 84.74 658.4 86.57 658.68 88.05 660.23 90.65 663.75 94.64 665.47 96.37 667.27 97.58 667.9 99.06 667.92 100.37 668.2 102.03 669.37 103.67 671.53 104.7 673.87 105.65 675.22 107.12 675.95 108.68 676.05 110.43 676.34 112.26 676.64 112.75 Z"/>
<path d="M 622.66 107.67 615.28 118.16 601.7 123.29 592.4 123.65 590.3 127.92 591.52 132.88 604.02 129.5 605.38 133.77 608.05 142.15 626.68 136.08 626.47 141.38 609.4 148.36 609.88 150.09 611.22 154.56 611.53 156.17 611.61 158.02 611.55 159.52 611 162.37 610.74 164.56 610.66 164.86 610.46 165.17 610.27 165.47 609.48 165.87 608.55 166.27 606.97 166.69 605.18 166.84 604.77 166.93 604.39 167.08 600.44 169.67 597.89 171.34 596.95 171.95 597.25 172.28 599.05 174.72 600.85 178.21 603.71 176.89 608.47 187.69 608.63 188.48 607.89 188.96 605.93 189.65 607.2 193.03 600.35 196.02 604.72 198 611.9 201.14 623.77 206.17 626.33 207.78 626.32 207.98 626.26 209.55 626.24 209.82 626.24 209.84 625.9 209.82 618.91 210.14 617.82 210.34 615.89 211.09 614.45 211.38 613.32 211.48 611.09 211.4 610.65 211.43 610.19 211.57 607.91 212.73 607.02 213.04 605.8 213.21 605.48 213.29 605.26 213.4 605.07 213.63 604.32 214.64 600.59 217.62 599.72 218.19 599.17 218.42 598.45 218.73 586.8 222.83 586.17 223.11 582.49 219.67 579.85 217.2 574.98 219.16 578.25 224.87 577.52 225.12 575.64 225.83 574.95 225.97 574.14 226.03 571.48 226.07 570.77 226.07 570 226.21 569.37 226.43 568.44 226.86 566.52 228.46 565.47 229.7 561.33 234.4 560.87 234.97 558.19 238.35 557.83 238.9 556.85 240.72 555.6 243.15 554.93 243.98 554.31 244.65 554.2 244.77 552.88 246.04 551.45 247.77 550.78 248.32 549.32 249.17 545.33 251.16 541.25 252.96 536.94 254.5 535.52 254.85 532.89 255.37 522.92 257.8 519.83 258.72 519.69 258.73 516.92 259.41 506.09 262.92 505.46 263.03 504.92 263.07 504.41 263.08 503.05 262.84 502.91 262.84 502.61 262.91 502.34 263.1 502.18 263.35 499.46 268.01 499.08 268.56 497.12 270.85 496.79 271.36 496.39 272 496.17 272.62 495.84 274.19 495.68 274.6 495.53 274.87 495.29 275.13 494.98 275.34 493.24 276.36 491.59 277.12 491.29 277.22 490.86 277.31 489.27 277.49 488.99 277.55 488.72 277.65 488.5 277.78 488.24 277.99 488.01 278.21 487.42 278.84 487.18 279.13 484.25 283.71 484.04 284.21 470.19 294.61 458.61 295.15 411.13 293.7 418.83 266.56 416.24 259.92 416.73 253.92 411.24 253.21 407.7 245.08 402.99 234.34 401.56 226.95 405.08 198.45 402.64 182.44 417.71 168.81 423.89 166.23 433.29 162.1 435.4 160.3 438.63 161.98 444.78 158.37 445.87 157.84 447.49 157.45 449.61 156.4 450.47 155.59 452.25 155.17 453.9 155.27 454.93 155.33 455.59 155.24 457.1 155.16 457.63 154.97 458.48 154.48 458.83 154.28 460.27 153.83 460.66 153.63 461.31 153.07 462.13 152.51 462.65 151.74 463 151.48 463.51 151.32 463.95 151.3 465.29 151.5 465.75 151.45 466.08 151.26 468.08 149.74 470.38 148.37 473.38 146.27 477.11 144.33 477.59 143.98 478.2 143.12 479.03 141.74 479.25 140.61 480.6 136.77 479.83 134.35 479.97 133.57 480.93 132.75 482.09 131.89 483.08 129.88 480.62 122.41 480.77 121.41 479.95 117.82 478.75 112.6 477.21 107.86 477.1 104.68 475.8 97.79 475.28 92.65 473.79 88.71 472.9 83.3 472.89 83.15 501.61 82.72 501.61 92.97 509.19 97.28 515.57 95.94 518.24 109.31 518.38 109.28 543.48 103.37 538.14 73.67 552.74 69.89 556.31 69.89 571.37 75.58 577.81 78.02 579.96 82.41 581.87 87.6 583 94.26 582.53 106.88 585.28 119.83 586.82 119.32 606.33 112.98 622.66 107.67 Z"/>
<path d="M 750.75 248.6 750.22 248.47 748.29 247.63 746.29 248.25 744.72 248.54 742.69 248.71 741.59 248.66 739.71 248.42 736.45 248.05 736.05 248.05 735.71 248.09 735.38 248.22 735.01 248.39 734.73 248.47 734.48 248.5 733.46 248.48 733.17 248.42 732.74 248.32 732.41 248.32 730.9 248.53 729.2 248.92 728.72 249.05 728.24 249.28 728.06 249.35 727.26 250.07 726.85 250.27 726.29 250.42 724.26 250.69 723.67 250.72 720.53 250.95 719.46 242.63 719.08 239.73 718.29 233.56 715.09 231.07 712.25 223.65 711.21 220.93 711.19 220.87 710.82 218.88 708.71 207.68 708.62 207.2 703.37 197.22 701.9 194.43 700.92 191.35 700.42 189.74 698.71 187.77 698.28 187.28 697.87 184.97 695.98 181.02 695.95 180.8 695.71 178.54 695.4 175.59 694.81 174.15 693.43 170.74 692.89 169.17 691.53 165.23 689.81 162.51 687.59 156.88 685.15 151 682.53 144.81 676.96 137.61 673.03 132.52 661.58 121.74 667.35 119.36 667.52 119.24 667.66 119.14 676.64 112.75 677.24 113.74 678.42 114.86 679.77 115.9 683 117.09 684.89 118.56 686.25 121 686 122.74 685.49 125.98 686.49 127.89 687.12 128.85 689.73 130.66 692.52 131.68 693.69 132.81 695.42 136.63 698.43 143.68 700.8 148.03 702.78 150.19 706.91 151.82 710.15 153.8 712.32 156.05 714.13 158.92 714.49 159 717.01 160.2 718.89 160.45 720.5 161.14 721.41 162.09 723.41 166 725.06 170.61 726.5 172.26 733.08 178.06 738.58 182.12 739.57 183.16 740.12 184.9 742.13 189.33 743.67 192.11 743.68 193.16 743.42 194.56 742.36 195.62 740.93 195.98 739.5 196.07 737.63 196.87 736.65 197.84 736.3 199.24 736.76 200.37 738.56 202.28 740.18 203.23 741 204.44 741.1 205.66 740.85 208.46 740.08 212.22 739.92 214.23 740.11 215.88 740.39 217.1 741.12 218.58 741.22 220.24 741.69 223.38 741.9 227.13 743.56 233.14 745.32 236.5 745.68 236.85 748.05 238.42 750.53 241.5 750.97 245.59 750.75 248.6 Z"/>
<path d="M 616.53 362.66 615.83 374.32 615.71 376.33 616.4 379.2 618.47 387.9 611.59 390.12 604.89 393.23 585.16 400.86 573.72 407.73 572.97 408.17 561.26 414.68 552.28 432.26 548.42 439.23 546.44 440.48 538.67 445.27 534.72 447.79 529.65 448.78 523.04 448.62 521.89 444.32 515.77 442.83 501.73 441.51 497.97 442.03 492.15 442.83 490.33 449.28 490.99 459.52 492.48 473.9 510.75 479.99 514.78 481.33 521.09 488.22 523.08 490.71 537.61 486.59 543.46 505.08 552.48 505.86 565.83 503.13 569.32 507.5 569.54 510.55 568.12 520.59 542.92 531.28 541.5 538.26 530.86 554.49 528.87 554.52 524.75 555.24 521.17 556.19 517.68 556.9 514.35 557.38 511.49 558.33 508 558.89 503.71 560.08 499.82 560.32 497.12 561.03 496.41 558.01 486.2 547.32 473.11 542.63 449.24 543.76 447.83 535.21 429.53 540.19 427.36 541.17 425.61 537.55 420.97 528.39 409.97 506.66 409.34 502.1 408.89 496.88 410.12 492.2 412.88 488.39 419.69 482.04 420.82 480.54 421.64 478.72 421.28 476.68 419.53 471.98 415.53 467.21 408.09 461.1 404.88 457.52 400.5 450.12 402.34 449.7 403.41 449.18 404.07 448.19 404.9 446.44 405.38 445.05 405.66 443.74 405.48 442.41 405.64 440.76 406.01 440.27 406.55 439.45 407.34 438.72 408.44 437.86 409.59 437.94 410.58 438.58 411.63 439.31 412.59 439.75 413.36 439.43 413.86 438.6 414.35 437.82 414.81 437.13 415.76 436.14 416.95 435.36 441.99 439.49 447.05 436.72 468.85 424.79 466.52 415.15 472.03 414.2 484.83 410.35 489.31 409 486.87 400.09 498.33 397.12 506.6 398.93 509.04 393.09 511.16 391.08 521.65 390.12 526.96 387.68 524.31 378.24 531.3 376.12 536.37 372.88 537.68 372.33 541.34 370.79 546.98 369.04 551.74 367.78 555 367.28 558.31 367.51 558.34 367.46 557.23 364.21 553.8 354.82 553.24 353.39 552.53 351.36 570.76 352.84 574 353.11 574.88 353.1 575.68 353.09 576.49 353.11 577.79 352.96 578.38 352.75 578.92 352.39 579.32 352.26 580.55 352.16 581.86 352.18 583.02 352.04 583.71 351.95 584.12 351.99 584.43 352.08 584.67 352.24 585.6 351.76 585.7 351.26 586.43 351.95 588.32 357.56 589.36 361.38 605.56 358.51 608.16 362.74 616.53 362.66 Z"/>
<path d="M 750.75 248.6 750.61 250.58 749.4 253.68 748.8 255.38 748.31 256.98 748.22 258.48 748.54 260.97 749.68 262.66 750.31 264.35 750.33 266.74 750.46 269.64 750.89 272.33 751.83 275.41 753.41 280.19 754.59 286.67 754.64 293.15 755.47 294.64 756.93 297.62 757.38 303.01 757.6 304.5 758.33 306.1 759.26 307.78 760.3 309.87 761.55 311.76 761.66 313.05 761.69 316.55 762.73 318.53 763.97 320.12 765.93 322.3 768.61 324.37 771.17 325.45 775.27 326.52 777.33 327.2 779.07 327.39 781.01 327.37 782.86 328.05 782.97 329.05 782.98 330.45 781.66 331.56 781.05 332.46 781.06 333.36 781.69 334.95 782.53 337.54 783.08 342.12 783.62 346.41 784.79 351.29 786.46 355.86 789.56 359.03 793.57 361.1 797.67 362.16 799 362.83 795.05 366.91 794.29 366.3 792.66 366.42 790.8 371.33 790.19 372.62 789.12 374.02 788.12 375.19 776.32 382.24 775.71 382.56 761.51 381.89 756.27 381.6 753.67 381.12 751.59 381.04 738.74 380.6 735.14 380.04 733.54 380.3 731.9 379.95 724.36 379.3 715.81 378.62 715.61 372.2 713.44 371.81 711.82 371.37 712.49 367.19 712.81 365.54 713.04 363.57 716.04 364.08 718.07 363.96 718.4 360.55 718.98 356.88 719.49 352.17 719.46 351.32 721.6 351.38 721.74 348.38 721.62 346.29 720.43 339.69 720.44 339.59 720.88 335.06 720.91 335.04 738.37 327.45 735.98 317.9 735.35 308.04 733.45 303.29 732.16 300.08 728.83 285.4 728.19 282.58 712.75 284.41 713.26 281.58 713.7 279.16 714.04 276.68 714.58 274.31 714.76 272.02 714.28 269.69 713.72 267.36 712.48 265.31 711.4 263.22 710 261.3 708.47 259.37 707.31 257.77 706.74 257.68 709.15 256.45 713.53 254.45 714.58 254.1 716.4 252.64 720.53 250.95 723.67 250.72 724.26 250.69 726.29 250.42 726.85 250.27 727.26 250.07 728.06 249.35 728.24 249.28 728.72 249.05 729.2 248.92 730.9 248.53 732.41 248.32 732.74 248.32 733.17 248.42 733.46 248.48 734.48 248.5 734.73 248.47 735.01 248.39 735.38 248.22 735.71 248.09 736.05 248.05 736.45 248.05 739.71 248.42 741.59 248.66 742.69 248.71 744.72 248.54 746.29 248.25 748.29 247.63 750.22 248.47 750.75 248.6 Z"/>
<path d="M 715.81 378.62 724.36 379.3 731.9 379.95 733.54 380.3 735.14 380.04 738.74 380.6 751.59 381.04 753.67 381.12 756.27 381.6 761.51 381.89 775.71 382.56 775.13 385.9 774.91 386.64 774.58 387.19 772.31 389.46 771.74 390.22 771.38 391.19 771.36 391.6 771.24 392.15 771.21 392.54 771.26 392.98 771.47 393.47 771.64 393.96 771.64 394.24 771.88 394.81 772.02 395.35 772.29 395.85 772.32 396.37 772.3 396.8 772.21 397.52 772.14 399.09 772.24 399.77 772.3 400.35 772.47 401.15 772.74 401.79 773.09 402.35 773.49 402.75 773.87 403.03 774.5 403.28 774.76 403.37 775.17 403.16 775.46 402.91 775.87 402.75 776.42 402.62 776.72 402.69 776.95 402.81 776.95 402.98 777.06 403.12 777.13 403.34 777.14 403.74 777.11 404.1 777.05 404.38 776.75 405.13 776.56 405.36 773.03 408.04 772.71 408.45 772.61 408.93 772.77 409.37 772.99 409.71 773.15 410.04 773.45 410.4 778.33 415.45 778.6 415.89 778.72 416.3 778.72 416.73 778.6 417.16 778.39 417.51 773.28 423.38 772.71 424.23 772.32 424.99 772.06 425.76 772.37 426.7 772.53 427.43 772.53 428.15 772.53 428.75 772.43 429.29 772.24 430.14 772.08 430.62 771.86 430.9 771.48 431.34 771.1 431.31 770.85 431.5 770.66 431.85 770.35 432.04 770.06 432.32 769.97 432.57 769.84 432.83 769.9 433.05 769.68 433.08 769.46 433.17 769.37 433.52 769.34 433.9 769.12 434.34 768.85 434.54 768.74 434.63 768.39 434.72 768.04 434.82 767.66 434.85 767.41 434.85 767 434.82 766.56 434.82 766.18 434.94 765.67 434.97 765.17 435.01 764.69 435.26 764.35 435.48 763.97 435.76 763.71 436.11 763.65 436.4 763.53 436.81 763.54 437.25 764.19 437.88 764.91 438.77 765.45 439.49 765.93 440.19 766.21 440.79 766.24 441.32 766.15 441.7 766.24 442.27 766.59 442.9 767 443.38 767.35 443.76 767.76 444.23 768.39 444.77 768.67 444.96 768.77 445.46 768.8 445.94 768.42 446.35 767.76 446.41 767.06 446.5 766.84 446.63 766.56 446.9 766.19 447.09 765.82 447.33 765.37 447.83 765.11 448.23 764.94 448.64 764.96 449.2 764.98 449.51 765 449.87 765.15 450.12 765.41 450.14 765.9 450.24 766.2 450.23 766.42 450.11 766.67 449.97 767.02 449.66 767.15 449.41 767.33 449.21 767.49 449.17 767.77 449.15 767.98 449.15 768.23 449.2 768.47 449.29 768.7 449.45 769.03 449.77 769.05 449.99 769.19 450.6 769.24 450.87 769.15 451.04 769.05 451.11 768.99 451.31 769.05 451.54 769.16 451.78 768.98 451.93 768.81 451.97 768.67 452 768.6 452.07 768.53 452.23 768.43 452.35 768.34 452.52 768.22 452.67 768.12 452.85 768.07 453.02 768.07 453.24 768.4 453.52 768.7 453.67 768.94 453.8 769.24 453.88 769.54 453.89 769.7 454.03 769.93 454.22 770.02 454.47 770.18 454.49 770.34 454.45 770.4 454.29 770.57 454.19 770.73 454.13 770.95 454.1 771.24 453.97 771.42 453.9 771.64 453.81 771.81 453.73 772 453.59 772.16 453.43 772.43 453.16 772.51 452.95 772.52 452.67 772.61 452.4 772.79 452.15 772.9 451.95 773.09 451.8 773.31 451.79 773.55 451.79 773.81 451.93 774.01 452.03 774.25 452.32 774.43 452.49 774.64 452.6 774.75 452.9 774.81 453.13 774.86 453.37 774.99 453.71 775.05 454.02 775.08 454.36 775.17 454.81 775.21 455.09 775.2 455.28 775.06 455.43 775 455.6 775.05 455.89 775.14 456.11 775.09 456.38 774.99 456.85 774.87 457.13 774.77 457.33 774.4 457.64 774.01 457.8 773.76 457.81 773.47 457.82 773.19 457.83 772.67 457.61 772.34 457.39 772.08 457.17 771.77 456.86 771.66 456.59 771.43 456.5 771.15 456.5 770.92 456.57 770.76 456.68 770.62 456.9 770.48 457.06 770.31 457.21 770.11 457.21 769.96 457.25 769.88 457.33 769.81 457.55 769.75 457.76 769.76 458.05 769.8 458.27 769.88 458.48 770 458.65 770.17 458.85 770.31 458.97 770.58 459.16 770.74 459.2 771.03 459.25 771.28 459.33 771.45 459.25 771.65 459.23 771.95 459.31 772.17 459.41 772.38 459.48 772.61 459.45 772.89 459.38 773.1 459.24 773.16 459.13 773.31 459.15 773.45 459.18 773.69 459.23 774.1 459.31 774.27 459.26 774.48 459.21 774.69 459.12 774.85 459.12 775.14 459.23 775.4 459.36 775.56 459.5 775.73 459.77 775.83 460.09 775.89 460.3 775.78 460.39 775.8 460.56 775.98 460.81 776.08 460.96 776.01 461.13 775.95 461.34 775.85 461.42 775.69 461.59 775.5 461.67 775.33 461.95 775.19 462.04 775.07 462.22 775.04 462.37 774.85 462.42 774.74 462.51 774.64 462.68 774.55 462.92 774.47 463.13 774.3 463.35 774.16 463.55 773.99 463.76 773.81 463.93 773.46 464.3 773.22 464.45 773.04 464.59 772.82 464.72 772.37 465.18 772.18 465.43 771.93 465.4 771.68 465.28 771.51 465.26 771.34 465.09 771.1 464.93 770.92 464.88 770.74 464.85 770.63 464.69 770.63 464.43 770.81 464.29 770.81 464.12 770.81 463.92 770.82 463.7 770.7 463.49 770.5 463.31 770.28 463.2 770.03 463.16 769.79 463.09 769.63 463.05 769.06 463.07 768.9 463.06 768.74 463.09 768.63 463.14 768.52 463.22 768.46 463.29 768.42 463.37 768.41 463.46 768.41 463.55 768.43 463.64 768.48 463.76 768.7 463.95 768.83 464.06 768.77 464.22 768.74 464.39 768.84 464.62 769.07 464.75 769.32 464.89 769.5 465.04 769.77 465.34 769.81 465.7 769.76 465.92 769.62 466.09 769.42 466.31 769.25 466.46 769.1 466.56 768.89 466.7 768.73 466.85 768.65 467 768.48 467.09 768.27 467.17 768.14 467.31 767.99 467.49 767.81 467.53 767.59 467.51 767.42 467.29 767.45 467.06 767.49 466.8 767.52 466.6 767.54 466.41 767.59 466.19 767.59 466.01 767.5 465.83 767.45 465.61 767.42 465.37 767.39 465.24 767.34 465.04 767.21 464.94 766.97 464.79 766.79 464.74 766.51 464.76 766.25 464.75 765.96 464.85 765.77 465.01 765.65 465.23 765.45 465.4 765.24 465.62 765.01 465.85 764.77 466.09 764.61 466.33 764.39 466.46 764.07 466.8 763.82 466.96 763.55 467.07 763.21 467.22 762.92 467.32 762.71 467.24 762.55 467.15 762.32 467.08 762.07 467.08 761.88 467.17 761.65 467.17 761.37 467 761.16 467.05 760.92 467.11 760.8 467.29 760.72 467.45 760.52 467.55 760.02 463.59 754.19 463.59 743.72 468.57 730.62 474.08 724.74 460.11 722.66 460.02 719.94 462.56 721.11 467.51 722.95 472.76 722.92 474.1 722.28 477.37 718.56 476.99 716.21 476.93 712.34 477.68 707.82 475.45 702.17 474 700.42 473.55 698.51 470.95 697.77 470.57 688.14 465.54 683.95 466.45 681.35 462.33 679.52 459.59 679.5 459.6 672.51 462.11 661.81 462.04 660.61 462.03 659.04 462.06 639.18 462.5 625.76 462.79 616.24 463.32 616.08 463.33 615.17 468.13 603.19 472.1 599 473.65 596.01 474.74 591.39 482.49 588.15 483.27 585.55 483.89 583.03 484.86 567.89 486.67 565.28 483.6 564.84 483.08 563.4 483.27 537.61 486.59 523.08 490.71 521.09 488.22 514.78 481.33 510.75 479.99 492.48 473.9 490.99 459.52 490.33 449.28 492.15 442.83 497.97 442.03 501.73 441.51 515.77 442.83 521.89 444.32 523.04 448.62 529.65 448.78 534.72 447.79 538.67 445.27 546.44 440.48 548.42 439.23 552.28 432.26 561.26 414.68 572.97 408.17 573.72 407.73 585.16 400.86 604.89 393.23 611.59 390.12 618.47 387.9 616.4 379.2 615.71 376.33 615.83 374.32 616.53 362.66 622.41 362.54 622.56 362.54 625.91 362.43 630.46 362.32 630.96 362.31 631.29 363.94 632.57 370.33 645.16 375 648.64 376.29 652.25 376.44 664.11 376.92 665.22 376.96 673.46 377.32 674.59 377.43 677.13 377.57 679.53 377.66 682.25 377.64 683.9 377.66 690.95 377.74 692.79 377.7 693.63 376.79 704.19 377.68 715.81 378.62 Z"/>
<path d="M 760.52 467.55 760.28 467.67 760.09 467.85 759.95 467.98 759.71 468.46 759.63 468.68 759.55 468.92 759.5 469.1 759.48 469.33 759.49 469.51 759.58 469.67 759.68 469.84 759.85 469.95 759.99 470.11 760.15 470.25 760.35 470.46 760.53 470.53 760.69 470.57 760.85 470.59 761.1 470.54 761.26 470.5 761.4 470.63 761.48 470.76 761.48 470.95 761.59 471.17 761.64 471.28 761.69 471.59 761.71 471.82 761.78 472.06 761.92 472.29 761.86 472.55 761.64 472.77 761.45 472.77 761.17 472.75 760.95 472.8 760.7 472.82 760.42 472.82 760.33 473.03 760.07 473.22 759.76 473.25 759.5 473.17 759.44 473.23 759.23 473.33 758.96 473.48 758.75 473.52 758.37 473.44 758.12 473.41 757.9 473.34 757.62 473.35 757.4 473.27 757.27 473.26 757.05 473.15 757.07 472.95 757.15 472.78 757.24 472.66 757.35 472.51 757.34 472.33 757.23 472.2 757.15 472.08 757.05 472.01 756.4 472.32 756.2 472.38 756.08 472.41 755.91 472.47 755.72 472.53 755.6 472.56 755.38 472.76 755.23 473.06 755.2 473.31 755.2 473.51 755.27 473.82 755.31 474.17 755.38 474.38 755.52 474.66 755.74 474.87 755.89 475.07 756.15 475.17 756.24 475.54 756.37 475.81 756.51 476.12 756.66 476.36 756.79 476.53 757.02 476.73 757.06 476.98 757.29 477.17 757.39 477.4 757.32 477.61 757.22 477.9 757.07 478.05 756.89 478.12 756.66 478.13 756.4 478.28 756.15 478.54 755.98 478.58 755.74 478.58 755.5 478.58 755.33 478.71 754.54 478.97 754.32 478.98 754.15 479.02 753.86 479.08 753.67 479.12 753.52 479.3 753.11 480.03 752.89 480.34 752.81 480.51 752.78 480.64 752.8 480.85 752.89 481.03 752.96 481.15 753.8 481.99 753.9 482.27 753.95 482.53 753.95 482.78 753.87 483.14 753.7 483.52 753.45 483.95 753.08 484.37 752.71 484.65 751.12 485.43 749.08 486.23 748.7 486.42 748.53 486.59 748.45 486.74 748.39 487 748.37 487.41 748.47 487.97 748.97 490.51 749 490.85 748.94 491.33 748.7 491.85 746.95 494.36 746.64 494.89 746.47 495.35 746.23 496.11 746 497.5 745.2 501.16 744.94 501.89 744.18 503.02 743.68 503.83 740.72 510.04 738.93 514.08 738.86 514.42 738.84 514.81 738.91 515.3 739.81 517.79 739.92 518.29 739.95 518.9 739.85 519.48 738.42 522.72 738.16 523.15 737.81 523.54 737.45 523.78 737.14 523.89 736.71 523.92 736.22 523.83 735.87 523.59 735.69 523.34 734.27 520.92 733.97 520.53 733.66 520.26 733.31 520.1 732.98 520.02 732.5 520.02 731.81 520.14 728.28 521.13 727.49 521.3 725.76 521.5 725.17 521.48 724.64 521.34 722.87 520.25 722.27 519.98 721.55 519.75 720.76 519.63 720.25 519.64 719.87 519.74 719.45 519.99 716.88 522.48 716.58 522.97 716.35 523.57 716.22 524.3 716.12 525.47 715.79 526.61 715.73 527.08 715.81 527.71 716.16 529.92 716.28 530.25 716.51 530.51 716.84 530.62 717.19 530.62 717.49 530.59 717.75 530.46 717.96 530.2 718.11 529.82 718.51 528.15 718.68 527.76 718.99 527.4 719.35 527.14 719.73 527.02 721.38 526.88 721.95 526.89 722.59 526.98 723.11 527.17 723.5 527.46 723.84 527.81 724.1 528.22 724.24 528.68 724.62 530.94 724.73 531.68 725.26 533.55 725.3 533.99 725.22 534.41 725.05 534.81 724.81 535.07 724.47 535.32 720.81 537.27 720.07 537.59 719.62 537.52 719.06 537.38 718.28 537.17 717.72 536.96 717.05 536.68 716.17 536.57 715.61 536.54 714.87 536.61 713.75 536.71 713.12 536.64 712.31 537.03 710.94 537.03 710.24 537.03 709.53 537.27 708.13 537.87 707.43 538.15 706.72 538.33 705.92 538.57 705.28 538.72 704.9 538.75 704.58 538.79 704.19 538.96 703.93 539.31 703.8 539.44 703.82 539.67 703.95 540.19 704.04 540.51 704.28 540.87 704.54 541.19 704.68 541.64 704.84 541.98 705.02 542.44 705.3 542.76 705.51 543.06 705.74 543.37 706.09 543.61 706.47 543.7 706.69 543.8 707.01 543.94 707.32 543.99 707.64 544.1 707.97 544.2 708.29 544.4 708.69 544.56 708.9 544.8 709.14 545.04 709.27 545.36 709.27 545.7 709.2 546.08 709.17 546.29 709.02 546.63 708.92 547 708.06 548.46 708.07 548.74 708.21 549.07 708.39 549.33 708.93 549.73 709.27 549.89 709.63 550.14 710 550.46 710.34 550.65 710.66 550.81 711.07 551.08 711.89 551.2 712.29 551.26 712.65 551.28 712.86 551.24 713.2 551.15 713.44 551.04 713.61 550.64 713.72 550.37 713.82 550.17 713.87 549.98 713.87 549.76 713.9 549.53 713.96 549.15 713.91 548.86 713.85 548.58 713.85 548.35 713.96 548.06 714.18 547.84 714.49 547.57 715.18 547.11 715.46 546.99 715.78 546.98 716.07 547.11 716.41 547.22 716.58 547.62 716.69 547.86 716.63 548.32 716.47 548.8 716.36 549.28 716.25 549.69 716.02 550.13 715.86 550.53 715.64 550.89 715.4 551.26 715 551.58 714.79 551.76 714.62 551.96 714.21 552.44 713.9 552.81 713.67 553.17 712.74 554.75 712.61 555.02 712.62 555.43 712.65 555.67 712.88 555.8 713.21 555.96 713.71 556.09 714.04 556.09 714.35 556.01 714.82 555.76 715.13 555.66 715.33 555.65 715.45 555.71 715.55 555.87 715.62 556.09 715.67 556.47 715.82 556.98 715.85 557.41 715.94 557.89 716.01 558.4 716.17 558.77 716.44 559.09 716.61 559.57 716.79 559.95 717.09 560.43 717.25 560.96 717.49 561.36 717.75 561.82 717.88 562.11 717.78 562.37 717.45 562.69 717.27 562.86 716.93 563.05 716.41 563.23 715.96 563.5 715.29 563.74 714.47 563.98 713.9 564.12 713.37 564.2 712.65 564.2 712.14 564.2 711.52 564.08 710.94 563.66 710.61 563.34 710.51 562.91 710.32 562.4 710.13 562.02 709.76 561.44 709.27 561.2 708.45 560.9 707.8 560.69 707.06 560.58 706.57 560.72 706.18 560.98 705.96 561.26 705.75 561.51 705.59 561.83 705.45 562.27 705.48 562.62 705.45 562.93 705.67 563.17 705.96 563.34 706.33 563.73 706.9 564.09 707.43 564.54 707.92 565.1 708.15 565.56 708.18 565.87 708.26 566.19 708.37 566.51 708.26 566.76 707.94 566.94 707.73 566.97 707.59 567.38 707.48 567.64 707.24 567.94 707.03 568.07 706.69 568.12 706.37 568.15 705.96 568.18 705.54 568.17 705.26 568.17 704.94 568.07 704.71 567.88 704.44 567.75 704.25 567.37 704.15 567 703.99 566.67 703.93 566.3 703.8 566.07 703.84 565.68 703.83 565.52 703.79 565.34 703.71 565.12 703.57 564.92 703.35 564.78 703.18 564.74 702.99 564.74 702.74 564.84 702.54 564.98 702.34 565.23 702.21 565.49 702.07 565.98 701.85 567.36 701.76 567.7 701.64 568 701.43 568.25 700.18 569.22 699.89 569.27 699.66 569.3 699.31 569.22 698.77 569.19 698.31 569.05 697.89 569.03 697.52 568.97 697.09 569.08 696.65 569.16 696.17 569.37 695.8 569.45 695.65 569.54 695.34 569.51 693.69 569.64 693.15 569.8 692.7 569.96 692.22 570.21 691.74 570.63 691.34 570.95 691.1 571.4 690.98 572.3 691 572.69 691.23 573.07 691.42 573.49 691.58 573.89 692.35 576.3 692.44 576.49 692.48 576.72 692.46 577 692.35 577.31 692.15 577.56 691.86 577.77 691.46 577.98 688.75 578.94 688.35 579.02 685.82 579.06 685.56 579.08 684.93 579.21 684.52 579.21 684.25 579.17 683.08 578.85 682.82 578.82 682.52 578.88 681.9 579.14 681.61 579.48 681.46 579.81 681.31 580.19 680.44 581.81 679.89 582.16 679.24 582.14 676.12 582.8 674.44 583.36 672.02 585.8 671.34 585.91 670.23 585.62 669.15 585.57 667.95 584.98 666.53 584.14 665.55 583.88 664.4 583.91 663.73 584.57 663.41 585.03 663.35 585.59 663.31 585.9 663.31 586.08 663.38 587.34 663.33 588.36 663.21 588.78 663.04 589.12 662.89 589.27 662.22 589.72 661.98 589.97 661.64 590.27 661.13 590.23 659.55 589.15 658.59 588.76 658.06 588.4 658 588.38 657.57 588.31 657.42 588.06 656.8 587.01 655.47 585.81 653.36 584.36 653.36 584.36 652.63 583.88 649.07 584.01 647.82 584.48 646.88 584.95 645.63 586.07 644.39 587.27 643.51 587.68 643.21 587.73 642.89 587.72 641.52 587.45 641.02 587.41 640.4 587.49 640.02 587.62 639.74 587.77 638.28 588.68 637.97 588.85 636.32 589.51 635.88 589.72 635.53 589.94 635.07 590.31 634.64 590.78 634.3 591.2 634 591.67 633.91 591.89 633.87 592.16 633.9 592.49 633.98 592.75 634.11 592.95 634.31 593.08 636.05 593.81 636.19 593.95 636.26 594.12 636.27 594.3 636.23 594.44 636.11 594.59 635.52 595.29 635.37 595.42 633.74 596.37 633.5 596.45 633.22 596.48 632.93 596.44 632.7 596.37 630.21 594.83 629.94 594.76 629.62 594.73 629.27 594.76 628.99 594.82 626.47 595.67 626.18 595.8 625.85 595.98 625.13 596.54 624.87 596.69 624.52 596.79 624.21 596.8 623.9 596.76 623.71 596.66 623.59 596.45 623.52 596.19 623.51 595.96 623.67 594.83 623.65 594.54 623.54 594.18 622.7 592.84 622.54 592.51 622.09 590.99 621.98 590.78 621.83 590.58 621.61 590.48 621.41 590.45 621.08 590.51 620.79 590.63 619.04 591.58 618.14 591.8 617.27 591.72 615.8 591.47 615.47 591.41 613.87 591.36 613.36 590.95 612.55 589.9 612.24 589.63 611.82 589.33 611.42 589.23 610.93 589.26 609.81 589.63 609.19 590.04 608.48 590.43 607.67 591.19 607.13 591.36 606.51 591.01 606.25 590.54 606.1 589.4 606.09 589.14 606.05 588.89 604.98 586.28 604.83 586.07 604.64 585.96 604.35 585.94 604.01 586.02 603.76 586.17 601.32 587.37 600.97 587.46 600.6 587.54 597.87 587.46 597.56 587.37 597.2 587.22 596.92 586.88 596.15 585.59 595.89 585.38 595.56 585.31 594.69 585.18 594.46 585.18 594.21 585.26 593.98 585.39 592.61 586.65 592.34 586.82 592.09 586.88 590.9 586.86 590.59 586.91 590.31 586.99 590.01 587.14 589.25 587.77 588.95 588.15 588.66 588.69 588.26 589.16 587 590.07 586.66 590.16 586.29 590.14 585.98 589.98 585.31 588.82 585 588.6 584.67 588.5 584.35 588.45 584.03 588.52 583.64 588.67 583.3 588.66 583 588.56 582.79 588.28 582.46 587.65 582.15 587.44 581.88 587.39 581.48 587.44 581.24 587.54 581.09 587.71 580.99 587.97 580.86 588.27 580.7 588.4 580.42 588.44 580.16 588.4 574.25 586.6 574.08 586.53 573.33 586.1 573.13 585.84 573.17 585.4 574.85 583.31 575 583.04 575.1 582.81 575.12 582.65 575.12 582.49 575.07 582.32 574.95 582.1 574.73 581.83 574.54 581.61 574.31 581.39 574.01 581.17 573.72 581.01 573.41 580.93 573.04 580.87 572.63 580.82 572.38 580.83 572.17 580.87 571.92 580.96 570.53 581.6 570.26 581.7 569.85 581.74 567.54 581.81 567.05 581.77 566.47 581.71 565.96 581.63 565.31 581.51 564.9 581.36 562.2 580.4 560.69 580.05 559.66 579.92 559.04 579.87 558.16 579.93 556.76 580.1 556.43 580.18 555.85 580.36 554.13 580.83 553.71 580.9 553.36 580.88 553 580.77 551.17 579.85 550.86 579.78 550.37 579.76 546.3 579.08 545.6 579.01 542.29 578.65 541.48 578.49 538.53 577.93 537.79 577.93 535.31 578.09 532.13 578.37 531.26 578.44 530.91 578.49 530.71 578.55 530.53 578.63 530.36 578.75 530.2 578.92 530.08 579.08 529.96 579.25 528.89 581.33 528.74 581.67 528.57 581.89 528.28 582.18 526.97 583.15 526.53 583.53 525.87 584.19 524.66 585.64 524.09 586.34 523.97 586.51 523.85 586.73 523.77 586.98 523.57 587.96 523.49 588.18 523.38 588.37 523.22 588.55 523 588.72 522.77 588.87 522.47 589.01 522.23 604.01 523.32 608.5 514.09 609.43 509.16 609.94 495.19 611.35 468.86 617.88 469.54 620.03 469.09 620.15 468.82 620.26 467.74 620.78 459.15 603.64 454.63 594.72 439.69 565.29 429.09 544.55 427.36 541.17 429.53 540.19 447.83 535.21 449.24 543.76 473.11 542.63 486.2 547.32 496.41 558.01 497.12 561.03 499.82 560.32 503.71 560.08 508 558.89 511.49 558.33 514.35 557.38 517.68 556.9 521.17 556.19 524.75 555.24 528.87 554.52 530.86 554.49 541.5 538.26 542.92 531.28 568.12 520.59 569.54 510.55 569.32 507.5 565.83 503.13 552.48 505.86 543.46 505.08 537.61 486.59 563.4 483.27 564.84 483.08 565.28 483.6 567.89 486.67 583.03 484.86 585.55 483.89 588.15 483.27 591.39 482.49 596.01 474.74 599 473.65 603.19 472.1 615.17 468.13 616.08 463.33 616.24 463.32 625.76 462.79 639.18 462.5 659.04 462.06 660.61 462.03 661.81 462.04 672.51 462.11 679.5 459.6 679.52 459.59 681.35 462.33 683.95 466.45 688.14 465.54 697.77 470.57 698.51 470.95 700.42 473.55 702.17 474 707.82 475.45 712.34 477.68 716.21 476.93 718.56 476.99 722.28 477.37 722.92 474.1 722.95 472.76 721.11 467.51 719.94 462.56 722.66 460.02 724.74 460.11 730.62 474.08 743.72 468.57 754.19 463.59 760.02 463.59 760.52 467.55 Z"/>
<path d="M 467.74 620.78 475.96 637.62 482.28 649.4 489.69 664.19 490.3 665.34 500.28 684.15 448.98 719.9 415.44 745.66 429.61 774.21 426.62 781.4 466.91 815.46 504.01 814.45 517.17 814.79 559.52 802.99 568.79 800.5 610.56 797.77 628.17 810.82 644.3 810.51 643.97 811.31 643.37 811.99 642.35 812.35 641.17 812.29 639.2 812.21 638.44 812.35 637.48 812.73 636.87 813.42 637.01 814.07 637.42 814.65 638.22 814.98 638.11 815.8 637.5 816.59 636.66 816.87 635.53 817.66 634.14 818.1 632.3 818.26 631.7 818.54 630.82 819.63 629.95 821.09 629.75 822.16 630.03 822.73 630.49 822.81 630.82 822.35 631.34 821.94 631.89 821.66 632.41 821.39 633.07 821.17 633.72 821.2 634 821.94 633.83 822.54 633.81 823.28 633.29 824.07 633.09 825.25 632.66 825.91 632.3 826.81 632 827.44 631.56 828.36 631.21 829.11 631.4 829.99 631.62 830.81 631.94 831.44 632.25 832.27 632.47 833 632.55 833.66 632.68 834.57 632.38 835.06 631.59 835.63 631.53 836.32 631.48 837.11 631.59 837.63 632.05 837.55 632.44 837.36 633.09 837.09 633.64 836.81 634.14 836.81 634.57 837.2 634.57 837.72 634.57 838.21 634.93 838.95 634.82 839.66 634.57 839.96 633.97 840.29 633.34 840.4 632.99 840.98 633.07 841.69 633.7 842.24 634.08 842.98 634.22 843.61 634.22 844.46 634.05 845.33 634 845.85 633.75 846.43 633.64 847.25 633.29 847.77 632.55 848.24 631.56 848.4 630.55 848.27 629.62 848.24 628.9 848.4 627.78 848.68 626.96 849.06 626.69 849.31 626.49 849.88 626.8 850.59 626.71 851.22 626.38 851.69 625.89 851.88 625.4 852.13 624.93 852.59 624.39 853.53 623.97 854.4 623.86 855.2 624.22 855.8 624.99 856.13 625.67 856.24 626.08 856.62 625.89 857.2 625.59 857.64 625.7 858.32 626.06 858.81 625.92 859.36 625.45 859.99 624.8 860.05 623.34 860.13 622.5 860.62 621.56 861.01 621.07 861.96 620.71 862.43 620.39 863.28 619.45 863.96 619.07 864.68 618.61 865.25 617.73 865.58 617.26 865.11 616.96 864.48 616.69 863.96 616.2 863.66 615.29 863.69 614.74 863.96 613.95 864.24 613.1 864.4 612.42 864.87 612 865.55 611.27 865.8 610.39 866.16 610.47 866.59 609.79 866.92 609.92 867.44 609.84 868.18 609.27 868.29 608.53 867.94 608.06 867.47 607.18 867.39 606.64 867.77 605.95 867.74 605.05 867.58 604.34 866.81 603.95 866.16 603.46 865.42 602.86 864.92 602.66 865.77 602.34 866.32 601.71 866.87 601.02 867.09 600.64 867.69 600.61 868.1 601.02 868.57 600.99 868.73 600.75 868.82 600.38 868.69 599.94 868.32 599.48 867.97 599.19 867.66 598.63 867.8 598.16 868.1 597.66 868.23 596.05 868.57 594.5 867.91 593.25 867.23 592.05 866.91 591.11 867.02 590.69 867.75 590.48 868.9 589.86 869.16 589.34 868.43 588.24 868.11 601.8 909.58 582.5 913.07 569.38 915.18 562.85 916.32 557.75 917.53 554.66 917.95 550.04 918.04 546.37 917.82 545.07 917.55 533.5 913.42 530.18 912.3 528.88 912.3 527.31 913.15 522.36 922 521.02 925.22 520.81 928.53 521.85 930.71 522.22 931.21 522.91 931.81 524.04 933.01 523.37 933.9 522.77 935.3 521.77 935.97 520.37 935.57 518.76 934.5 517.36 933.03 516.02 931.89 515.56 930.62 516.49 929.89 517.23 928.55 517.36 926.35 517.89 923.68 517.03 922.47 516.02 921 515.49 919.67 514.22 918.93 513.29 919.33 511.01 922.21 509.14 925.48 507.14 928.82 505.42 930.91 504.67 931.83 503 933.9 501.79 936.64 499.06 938.91 496.99 940.31 494.31 941.98 492.04 942.52 489.3 943.19 486.7 943.32 485.03 943.05 484.16 941.25 482.09 940.31 479.95 940.45 478.35 940.51 476.61 939.45 474.21 938.18 472.07 937.91 468.79 937.44 466.46 937.84 464.18 939.24 462.05 941.25 460.18 943.12 457.91 944.39 455.77 945.26 453.63 945.93 451.96 946.86 450.49 948.47 448.89 949.27 447.75 948 447.28 946.46 446.88 944.46 447.08 942.79 447.08 940.92 446.08 939.11 444.54 937.98 443.21 937.84 441.6 938.11 440.74 939.11 440.34 940.71 440.67 942.72 441.47 945.53 441.94 948.13 441.67 950.2 441.27 952.41 441 953.43 440.6 954.95 440.27 956.95 440.14 958.29 438.93 960.43 437.46 961.23 434.32 961.36 430.85 962.5 428.18 963.64 426.71 963.9 424.84 962.77 422.23 961.9 419.89 961.16 417.96 961.5 415.75 962.9 414.42 964.84 412.88 968.11 411.08 971.92 410.34 973.93 409.67 975.53 409.87 976.67 410.67 978.74 411.88 979.81 413.61 981.01 415.28 981.08 417.36 981.14 418.42 983.75 418.49 985.22 416.89 986.15 415.89 987.09 415.08 988.29 413.68 988.36 411.48 988.29 409.47 988.56 407.6 988.36 405.53 988.23 404.13 988.83 400.99 988.49 398.98 988.49 397.65 988.83 395.51 988.83 394.25 989.17 392.07 989.12 389.98 989.57 388.88 989.79 387.48 990.18 386.37 990.23 384.47 990.91 382.96 991.41 381.67 992.53 379.88 993.48 379.32 995.43 379.88 996.72 380.05 998.12 378.48 999.63 377.93 1000.58 377.42 1002.31 377.09 1003.93 377.25 1005.39 366.02 992.27 348.75 986.05 341.93 984.56 331 983.99 310.69 977.32 301.18 969.51 276.33 949.62 275.2 947.64 252.94 925.97 186.77 956.91 157.03 960.02 151.41 946.16 140.25 906.68 117.38 902.33 108.61 899.44 98.94 894.87 81.2 879.01 80.07 881.15 79.84 882.02 79.51 883.12 78.73 884.37 78.2 885.07 77.8 885.82 77.03 887.64 76.9 888.28 76.84 888.79 76.82 889.77 76.73 890.29 76.39 891.47 76.26 892.11 76.14 893.39 76.05 894.01 75.88 894.69 74.1 898.7 74 899.1 73.94 899.5 73.91 900.21 73.81 900.79 73.6 901.33 72.88 902.58 69.52 906.4 68.83 907.09 68.13 907.72 67.67 908.03 66.35 908.63 65.82 908.93 65.3 909.36 64.41 910.3 63.97 910.89 63.69 911.42 63.41 912.6 63.16 913.44 62.83 913.99 62.29 914.84 61.97 915.22 58.47 918.21 57.53 918.3 48.81 906.53 51.66 899.34 53.69 894.04 54.53 892.03 55.05 890.78 55.46 888.75 55.18 885.22 53.69 882.1 50.71 881.01 46.77 879.38 43.92 875.99 43.38 872.6 44.33 869.61 44.33 867.44 44.6 865.13 45.55 863.23 46.91 861.47 51.11 856.58 53.15 853.63 54.62 851.75 56.5 849.46 58.98 847.27 62.11 844.88 64.5 842.67 67.63 839.55 68.91 836.97 70.94 833.48 71.41 832.72 73.33 829.61 73.7 825.57 72.59 820.78 72.22 818.57 71.86 816.37 71.3 812.5 70.2 808.09 69.65 803.67 69.83 799.81 71.08 798.44 71.62 797.08 71.79 795.11 72.17 793.37 72.98 790.92 73.5 789.02 75.45 789.01 75.86 785.3 75.85 784.97 75.79 784.8 75.16 783.92 75.08 783.68 75.09 783.4 75.17 783.17 75.43 782.8 75.48 782.66 75.5 782.5 75.41 781.23 75.39 779.96 75.42 779.65 75.48 779.37 75.86 777.91 75.91 777.64 75.87 777.35 75.82 776.98 75.69 776.66 74.57 774.73 74.34 774.26 74.08 773.42 73.83 772.12 73.74 771.72 73.27 770.55 73.04 769.72 72.99 769.05 73.1 767.94 73.23 767.31 73.68 765.78 73.91 765.31 74.92 763.52 75.09 763.15 75.14 762.77 75.13 762.4 75.67 760.68 78.15 758.89 79.85 758.09 83.24 756.66 86.18 755.46 92.7 750.28 93.28 747.29 92.94 745.33 92.82 744.47 92.79 743.13 93.18 742.09 93.77 741.34 94.73 740.39 95.41 739.59 96.3 738.87 97.26 737.71 97.41 736.07 97.14 735.42 97.32 734.55 98.36 733.66 98.78 732.77 99.04 731.45 99.82 730.11 100.89 729.34 101.81 728.71 102.5 727.73 103.39 726.57 104.23 725.62 104.97 724.54 104.73 723.38 103.66 722.49 102.35 721.66 101.58 720.67 100.96 719.81 101.36 714.62 102.96 711.16 104.95 710.9 109.48 709.56 111.74 707.57 112.4 705.44 113.07 699.98 114.27 698.12 113.6 694.79 115.2 692.92 117.33 692.79 121.19 693.86 125.71 695.32 129.17 695.19 133.43 690.39 131.57 683.6 137.03 680.14 142.35 676.68 146.07 674.55 147.14 672.16 147.27 667.5 149.14 664.43 152.33 662.04 157.79 662.44 161.78 660.31 161.78 653.25 163.38 649.39 168.87 643.8 169.33 643.12 170.34 642.05 171.12 640.52 171.59 638.81 172.13 637.62 172.96 636.23 173.88 634.96 175.13 633.83 176.18 633.67 177.61 633.47 179.89 632.18 180.98 631.31 182.19 630.31 183.49 629.2 184.5 628.63 185.81 628.43 187.55 627.75 188.47 627.14 188.75 626.34 189.56 625.13 190.97 623.92 191.7 622.61 192.3 621.54 192 620.13 191.82 618.66 191.8 617.09 192.24 615.42 193.55 614.21 194.58 612.9 195.08 611.27 195.24 610 195.63 608.49 196.57 607.64 197.6 607.32 199.27 607.8 200.16 608.45 200.82 610.58 200.64 612.42 200.72 613.64 201.43 614.41 202.52 614.75 203.69 613.99 204.43 612.6 205.8 610.56 207.5 609.37 210.5 608.41 212.09 608.26 215.41 605.99 218.07 601.87 218.34 599.07 218.34 595.21 221.1 594.55 221.14 594.55 223 596.41 226.46 593.88 229.52 592.28 232.18 590.02 232.58 586.96 229.92 582.7 228.06 579.24 228.99 577.24 231.64 577.42 232.62 577.48 234.22 576.98 235.83 575.77 237.26 574.48 237.9 574.06 238.49 573.88 240.64 573.13 242.64 573.11 245 572.93 247.07 571.98 249.05 570.9 249.95 569.45 250.4 567.51 252.04 581.35 256.79 595.61 264.07 595.03 266.26 608.08 267.19 613.01 272.01 638.55 261.42 655.68 260.73 659.58 263.15 671.18 267.48 673.26 272.67 677.59 276.87 680.62 279.93 684.34 284.9 680.93 292.34 681.65 311.5 683.53 317.59 684.13 334.63 681.91 334.85 681.92 335.48 683.01 335.78 685.65 338.06 694.36 339.17 698.83 339.36 700.95 338.71 702.84 337.73 705.74 337.73 706.78 339.7 709.92 339.87 709.69 339.97 709.51 340.04 709.33 340.08 709.07 340.08 708.79 340.06 708.61 339.91 707.81 339.9 707.64 339.91 707.45 339.95 707.28 340 707.16 340.08 707.04 340.84 706.02 341.53 705.26 341.94 704.89 342.34 704.59 342.81 704.29 343.41 703.97 344.78 703.44 346.04 702.96 347.36 702.6 348.16 702.44 348.63 702.4 349.05 702.42 349.63 702.55 350.08 702.69 350.54 702.94 350.88 703.22 353.55 705.7 353.82 705.91 354.19 706.12 354.59 706.27 354.98 706.36 355.39 706.4 355.83 706.38 356.4 706.33 360.15 705.71 362.27 705.03 369.29 702.18 369.48 702.07 369.68 701.9 369.76 701.8 369.82 701.69 369.85 701.57 369.85 701.39 369.81 701.22 369.73 700.99 369.38 700.25 369.24 699.9 369.16 699.55 369.14 699.21 369.16 698.84 369.23 698.46 369.36 698.07 369.91 697 370.12 696.67 370.31 696.43 370.53 696.25 370.78 696.11 372.23 695.54 372.35 695.44 372.46 695.32 372.55 695.18 372.96 694.31 373.09 694.09 373.28 693.87 373.61 693.47 373.71 693.37 373.79 693.32 373.88 693.26 374.01 693.22 376.4 692.54 376.62 692.48 376.8 692.46 376.97 692.44 378.64 692.46 378.85 692.44 378.94 692.43 379 692.4 379.05 692.37 379.11 692.32 379.14 692.29 379.18 692.23 379.21 692.16 379.22 692.07 379.24 691.91 379.26 691.24 379.3 690.98 379.39 690.72 379.5 690.49 379.73 690.21 379.98 689.95 380.31 689.69 380.46 689.6 380.81 689.46 381.32 689.3 381.48 689.26 381.73 689.23 381.88 689.22 383.3 689.25 383.63 689.22 383.91 689.17 384.13 689.09 384.26 689.03 384.35 688.96 384.65 688.72 384.8 688.58 384.87 688.48 385.09 688.09 385.13 688 385.16 687.9 385.18 687.8 385.77 684.22 385.8 684.11 385.85 683.99 385.91 683.88 386.01 683.79 386.11 683.72 386.23 683.66 386.37 683.63 386.53 683.61 386.68 683.61 387.37 683.7 387.47 683.69 387.57 683.68 387.68 683.65 387.78 683.6 387.89 683.52 388.02 683.4 388.54 682.79 388.67 682.6 388.84 682.45 389.58 681.98 389.76 681.82 389.83 681.73 389.87 681.66 390.25 680.79 390.31 680.66 390.39 680.58 391.04 680.1 391.14 680 391.2 679.89 391.24 679.77 391.24 679.68 391.21 679.58 391.15 679.47 391.09 679.4 390.31 678.83 390.19 678.72 390.07 678.55 390.01 678.36 389.99 678.13 390.02 677.91 390.12 677.61 390.24 677.4 390.4 677.2 390.93 676.76 391.25 676.43 391.48 676.2 392.33 674.97 392.47 674.78 392.66 674.61 392.89 674.44 394.14 673.66 395.53 673.14 396.46 672.79 397.16 672.6 398.1 672.49 398.93 672.44 401.22 672.42 401.73 672.36 401.94 672.33 402.14 672.27 403 671.76 403.41 671.62 403.61 671.58 404.07 671.59 404.26 671.6 404.48 671.65 404.71 671.74 406.4 672.67 406.65 672.79 406.83 672.83 407.02 672.85 407.81 672.85 408.94 672.94 409.19 673 409.48 673.1 410.12 673.38 410.43 673.55 410.66 673.7 410.92 673.89 411.11 674.07 412.57 676.01 412.75 676.19 412.91 676.32 413.11 676.42 413.32 676.47 414 676.59 414.24 676.6 414.53 676.58 414.76 676.53 414.98 676.41 415.12 676.26 415.21 676.09 415.28 675.86 415.32 675.65 415.34 675.44 415.44 674.27 415.48 674.06 415.55 673.89 415.66 673.72 415.94 673.45 416.85 672.54 417.07 672.27 417.16 672.11 417.23 671.96 417.46 671 417.52 670.87 417.62 670.75 417.73 670.67 417.85 670.61 417.97 670.59 418.08 670.59 418.27 670.61 418.46 670.65 418.62 670.69 419.1 670.89 419.26 670.91 419.43 670.92 419.59 670.91 420.64 670.64 420.73 670.6 420.81 670.55 420.89 670.45 420.95 670.35 420.98 670.23 420.97 670.07 420.93 669.93 420.88 669.8 420.35 668.75 420.31 668.65 420.29 668.56 420.28 668.5 420.29 668.42 420.32 668.33 420.35 668.23 420.42 668.12 420.48 668.06 420.56 667.99 421.23 667.6 421.29 667.55 421.34 667.5 421.37 667.44 421.4 667.38 421.42 667.33 421.45 667.23 421.46 667.18 421.46 667.13 421.45 667.1 421.41 666.9 421.38 666.82 421.34 666.74 421.29 666.66 421.25 666.6 421.2 666.55 420.41 665.92 420.36 665.87 420.33 665.83 420.15 665.54 420.12 665.49 420.09 665.41 420.07 665.33 420.06 665.25 420.04 664.99 420.04 664.13 420.04 664.06 420.03 663.99 419.98 663.67 419.95 663.6 419.93 663.53 419.89 663.48 419.84 663.41 419.02 662.42 418.99 662.37 418.95 662.31 418.93 662.25 418.87 661.98 418.86 661.92 418.87 661.87 418.88 661.81 418.91 661.76 418.95 661.71 419.01 661.67 419.44 661.39 420.24 660.9 420.32 660.82 420.41 660.74 420.46 660.65 420.51 660.55 420.56 660.45 420.6 660.31 420.62 660.18 420.62 660.03 420.6 659.92 420.55 659.8 419.92 659.01 419.89 658.95 419.86 658.88 419.84 658.81 419.83 658.74 419.84 658.66 419.85 658.58 419.88 658.51 419.92 658.46 419.96 658.44 420 658.41 420.83 658.1 420.88 658.07 420.93 658.03 420.97 657.98 421.01 657.9 421.07 657.8 421.11 657.71 421.34 657.1 421.94 655.3 422.03 654.87 422.05 654.48 421.99 653.16 422.02 652.81 422.11 652.55 422.29 652.28 422.71 651.85 424.69 650.11 425.04 649.86 425.82 649.39 427.05 648.59 427.3 648.47 427.62 648.33 427.94 648.23 428.22 648.17 430.69 647.67 430.89 647.64 431.1 647.63 432.13 647.66 432.38 647.67 433.71 647.78 433.88 647.76 433.97 647.73 434.13 647.67 434.27 647.63 434.37 647.61 434.87 647.56 435.06 647.58 435.32 647.62 435.5 647.67 435.68 647.75 437.18 648.76 438.3 649.37 438.78 649.61 439.87 649.97 440.22 650.06 442.05 650.34 442.51 650.36 442.97 650.39 443.36 650.36 443.82 650.25 444.27 650.07 444.7 649.85 445.12 649.56 445.41 649.25 445.69 648.86 445.87 648.52 446 648.13 446.23 647.31 446.98 644.07 447.37 642.73 447.61 642.01 447.72 641.66 448.23 640.01 448.44 639.59 448.99 638.7 449.63 637.82 451.7 635.09 453.63 632.25 454.17 631.64 454.7 631.07 457.21 628.57 462.85 623.84 465.23 622.03 465.62 621.81 467.74 620.78 Z"/>
<path d="M 715.09 231.07 707.29 233.83 698.3 236.07 695.05 236.82 693.17 237.25 692.71 235.99 692.55 235.58 690.21 236.17 689.13 236.37 685.02 237.15 681.1 238.05 680.27 232.51 660.12 237.11 651.13 239.63 650.39 235.55 649.96 231.62 648.76 231.71 646.76 231.87 646.59 226.81 646.55 224.76 646.48 221.37 646.41 214.22 647.34 214.36 650.97 214.35 652.16 214.4 653.11 214.36 654.03 214.16 654.98 213.72 659.06 211.61 660.36 210.94 663.44 209.59 667 207.42 668.53 206.8 670.54 205.77 672.19 204.65 673.12 204.19 676.82 203.13 680.13 202.45 680.88 202.23 681.76 201.87 682.98 201.36 684.82 199.94 685.46 199.35 686.87 197.88 687.38 197.49 687.62 197.34 688.05 197.22 688.8 197.15 689.28 197.19 689.74 197.3 691.44 197.72 691.98 197.74 692.44 197.59 695.13 196.01 695.93 195.64 697.73 195.12 700.46 194.57 701.9 194.43 703.37 197.22 708.62 207.2 708.71 207.68 710.82 218.88 711.19 220.87 711.21 220.93 712.25 223.65 715.09 231.07 Z"/>
<path d="M 617.28 253.94 618.19 253.99 621.76 254.43 623.47 254.43 625.28 252.84 626.05 252.58 627.04 252.24 631.66 251.14 635.28 250.59 636.54 254.17 644.54 253.2 653.15 252.32 657.6 274.91 658.75 279.06 668.64 274.7 671.99 273.44 672.36 273.22 673.3 272.55 673.73 272.33 674.73 271.84 674.88 271.77 675.31 271.63 676.63 271.4 677.1 271.3 677.52 271.15 679.11 270.1 679.43 269.89 679.92 269.63 680.29 269.47 685.52 267.92 686.02 267.7 686.47 267.47 688.52 266.04 688.87 265.76 689.31 265.46 689.69 265.27 691.15 264.54 691.55 264.41 693.52 263.77 693.85 263.64 694.2 263.46 696.67 262.17 697.06 261.96 697.39 261.85 698.75 261.55 702.83 259.73 704.12 259.02 706.74 257.68 707.31 257.77 708.47 259.37 710 261.3 711.4 263.22 712.48 265.31 713.72 267.36 714.28 269.69 714.76 272.02 714.58 274.31 714.04 276.68 713.7 279.16 713.26 281.58 712.75 284.41 704.13 285.43 701.23 285.74 694.11 285.12 683.93 284.67 679.92 284.89 679.88 284.9 678.12 294.85 674 295.48 669.7 296.15 664.57 297.14 663.06 297.34 654.78 298.44 651.58 300.21 649.65 301.28 649.22 302.24 648.5 303.88 646.89 305.41 647.89 310 651.18 312.22 652.17 313.98 652.52 316.42 652.71 317.81 651.26 319.04 646.89 319.11 641.56 323.88 641.15 324.24 637.83 321.29 623.52 308.56 613.78 299.9 613.4 299.56 606.63 303.95 605 304.9 602.23 306.11 601.36 306.42 600.53 306.61 599.04 306.62 598.85 306.68 598.02 306.95 597.38 307.25 582.13 318.02 580.96 318.78 579.44 319.43 576.37 320.34 572.95 320.64 571.59 320.91 565.83 322.12 563.08 322.82 562.84 321.94 562.73 321.53 562.28 319.84 559.89 320.25 555.88 320.34 554.21 320.31 552.39 320.99 549.44 322.79 548.36 323.63 547.14 324.59 545.56 325.04 543.5 325.69 542.69 323.69 541.09 319.27 540.54 317.34 539.59 314.8 534.51 300.43 534.13 299.39 533.8 298.52 531.1 291.29 527.84 281.69 526.8 278.7 524.44 272.27 522.62 266.89 520.02 259.4 519.83 258.72 522.92 257.8 532.89 255.37 535.52 254.85 536.94 254.5 541.25 252.96 545.33 251.16 549.32 249.17 550.78 248.32 551.45 247.77 552.88 246.04 554.2 244.77 554.31 244.65 554.93 243.98 555.6 243.15 556.85 240.72 557.83 238.9 558.19 238.35 560.87 234.97 561.33 234.4 565.47 229.7 566.52 228.46 568.44 226.86 569.37 226.43 570 226.21 570.77 226.07 571.48 226.07 574.14 226.03 574.95 225.97 575.64 225.83 577.52 225.12 578.25 224.87 581.23 229.47 581.98 232.15 581.99 232.17 582.41 234.02 582.98 236.53 583.34 238.11 584.16 239.99 584.42 240.57 585.76 243.77 587.3 247.07 588.55 248.85 590 248.33 593.73 247.12 596.92 249.32 600.73 251.82 607.09 255.97 611.54 255.09 614.01 253.78 616.32 253.88 617.28 253.94 Z"/>
</g>
</svg>